<svg width="64" height="64" viewBox="0 0 64 64" fill="none" xmlns="http://www.w3.org/2000/svg">
<path d="M13.519 35.3657C3.32733 30.6608 2.4127 23.2768 3.22934 20.1729L7.63919 4L11.5591 10.8612C13.3557 10.0444 18.1249 8.70486 22.8287 9.88107C27.5326 11.0573 31.3218 14.2919 32.6284 15.7621L39.9782 11.8414C38.9999 15.4289 37.3274 21.5341 36.2023 25.5639M13.519 35.3657C26.2586 41.2468 34.5883 30.9549 35.0783 29.4846C35.2094 29.0912 35.6367 27.5898 36.2023 25.5639M13.519 35.3657C13.3557 37.8161 13.813 43.5012 16.9489 46.6378M16.4589 26.5441L17.4389 28.9945L19.8888 27.5243M16.9489 46.6378C20.0848 49.7743 22.8287 50.2317 23.8087 50.0684M16.9489 46.6378C16.1773 48.7615 16.2865 53.695 22.8962 56.4395M23.8087 50.0684C24.6253 47.6179 27.1406 43.1091 30.6684 44.6774C31.8117 45.3309 33.5104 47.814 31.1584 52.5188M23.8087 50.0684C22.8926 52.6863 22.6756 54.8848 22.8962 56.4395M31.1584 52.5188C28.2185 58.3999 25.7686 59.3801 24.2987 58.89C23.6139 58.6617 23.0887 57.7953 22.8962 56.4395M31.1584 52.5188C32.2693 52.6775 34.1048 52.8671 36.0583 52.9302M41.9381 52.5188C43.0814 49.0882 46.2499 42.717 49.7778 44.6774C50.4172 45.4235 51.1399 47.1569 50.6943 49.5783M41.9381 52.5188C41.7748 54.3158 41.6441 58.0078 42.4281 58.3999M41.9381 52.5188C40.3256 52.922 38.1259 52.997 36.0583 52.9302M42.4281 58.3999C43.408 58.89 44.878 59.8702 48.7979 53.9891C49.8879 52.3537 50.4569 50.8684 50.6943 49.5783M42.4281 58.3999C40.4681 58.1841 36.4503 56.7879 36.0583 52.9302M50.6943 49.5783C52.1854 48.4347 55.2657 44.6774 55.6576 38.7963C55.8118 36.4842 55.6389 34.0752 54.7966 31.9351M36.2023 25.5639C45.756 24.1973 50.8572 26.1843 53.4156 29.4846M53.4156 29.4846C54.163 26.3807 53.9917 20.271 47.3279 20.663C49.2878 18.2126 54.5797 14.782 60.0675 20.663C61.4534 23.6036 62.3395 29.9747 54.7966 31.9351M53.4156 29.4846C54.0017 30.2407 54.4544 31.0657 54.7966 31.9351" stroke="#003E47" stroke-width="3" stroke-linecap="round" stroke-linejoin="round"/>
<path d="M13.49 16L14.7149 17.9604M15.9399 19.9207L14.7149 17.9604M14.7149 17.9604L16.4299 16.9802M14.7149 17.9604L13 18.9405M24.7596 19.4306L25.9846 21.1459M27.2095 22.8612L25.9846 21.1459M25.9846 21.1459L27.6995 19.9207M25.9846 21.1459L24.2696 22.3712" stroke="#00CEBF" stroke-width="3" stroke-linecap="round" stroke-linejoin="round"/>
</svg>
