<svg width="64" height="64" viewBox="0 0 64 64" fill="none" xmlns="http://www.w3.org/2000/svg">
<path d="M11.1957 35.1218L10.2071 36.8377L3 32.8567L12.6781 16.1774L19.8166 20.1585L18.907 21.7372M11.1957 35.1218L13.845 38.0732M11.1957 35.1218L18.907 21.7372M13.845 38.0732C13.2043 38.6452 12.2388 40.2285 13.5018 41.9857C14.7647 43.7428 16.682 42.7178 17.4828 41.9857M13.845 38.0732C15.7669 36.22 17.071 35.9454 18.5811 37.1123C19.7891 38.0458 19.7708 39.3774 19.6106 39.9265M17.4828 41.9857L19.6106 39.9265M17.4828 41.9857C16.7278 42.7163 15.7669 44.388 17.2083 45.9667C18.3614 47.2297 19.931 46.8133 20.5716 46.4472M19.6106 39.9265L21.5325 38.4164C22.3562 37.8673 24.3056 37.1672 25.5136 38.7596C26.7216 40.3521 25.6509 41.9399 24.9645 42.5348M24.9645 42.5348L20.5716 46.4472M24.9645 42.5348C26.0627 41.5567 27.4355 41.2993 28.7396 42.9466C29.7829 44.2645 29.0371 45.8294 28.5337 46.4472M20.5716 46.4472C20.3886 47.1107 20.2421 48.6436 21.1207 49.4673C22.2189 50.4969 23.729 50.4283 24.484 49.9478L24.9645 49.5325M28.5337 46.4472C28.9913 46.4014 30.1261 46.5433 31.0047 47.4768C32.1029 48.6436 31.7598 50.3596 31.0047 51.1833L30.5242 51.597M28.5337 46.4472L24.9645 49.5325M24.9645 49.5325C24.6509 49.8035 24.0035 51.4578 25.3763 52.8993C26.4745 54.0524 27.9388 53.6543 28.5337 53.3111L30.5242 51.597M30.5242 51.597C31.3479 51.8938 33.2973 52.4737 34.5053 52.4188C36.0154 52.3502 37.3882 51.801 37.4568 49.1241M37.4568 49.1241L33.0639 46.9277M37.4568 49.1241C38.2576 49.4902 40.0925 49.8929 41.026 48.575C41.9595 47.2571 41.5523 45.8752 41.2319 45.349M41.2319 45.349L33.8876 40.9561M41.2319 45.349C41.9183 45.7608 43.6068 46.2138 44.8698 44.7312C46.1328 43.2486 45.5791 41.8255 45.1444 41.2993M45.1444 41.2993L37.045 36.0827M45.1444 41.2993C46.0367 41.8026 48.1096 42.4387 49.2627 40.9561C50.2419 39.6971 49.7066 38.3491 49.1446 37.5928M24.6899 24.6886C24.3467 25.2835 23.4544 26.7066 22.6308 27.6401C21.6012 28.807 21.7385 30.0425 23.1112 31.278C24.2095 32.2664 26.0398 31.8728 26.8177 31.5525C27.6643 30.706 29.5221 28.8344 30.1811 28.1206C30.84 27.4067 31.5996 26.9537 31.897 26.8164C33.2698 26.2673 35.0773 27.3656 35.8095 27.9833L48.8509 37.2496C48.9441 37.3428 49.0447 37.4584 49.1446 37.5928M24.6899 24.6886C23.0769 24.1624 19.662 22.8354 18.907 21.7372M24.6899 24.6886C25.239 23.8878 26.6393 22.1764 27.8473 21.7372C29.3574 21.188 31.5538 20.9135 33.4757 20.9135C35.0132 20.9135 41.6667 21.005 44.8012 21.0508M44.8012 21.0508L44.1148 19.4721L51.2532 15.4224L61 32.1016L53.7242 36.3573L52.2037 33.749M44.8012 21.0508L52.2037 33.749M52.2037 33.749C52.2072 34.0922 52.0494 34.9982 51.3905 35.8768C50.7316 36.7554 49.6187 37.3868 49.1446 37.5928" stroke="#003E47" stroke-width="3" stroke-linecap="round" stroke-linejoin="round"/>
<path d="M23.7295 13.6379L28.4656 16.9325M29.0147 10.2746L30.662 15.903M34.5745 10L33.4076 15.6284M40.2715 12.4024L36.1532 16.2461" stroke="#00CEBF" stroke-width="3" stroke-linecap="round" stroke-linejoin="round"/>
</svg>
