<svg width="64" height="64" viewBox="0 0 64 64" fill="none" xmlns="http://www.w3.org/2000/svg">
<path d="M46.862 36.7314C47.0669 37.9313 47.318 39.0573 47.4839 39.717H47L47.9672 43.3715C43.9906 47.6342 38.3086 50.3019 32 50.3019C25.6914 50.3019 20.0095 47.6342 16.0328 43.3715L17 39.717H16.5162C16.682 39.0573 16.9331 37.9313 17.138 36.7314M46.862 36.7314C46.6684 35.5974 46.5162 34.3973 46.5162 33.4623C46.5162 31.82 47.6437 31.5231 48.6672 31.6531M46.862 36.7314C44.6613 40.7249 40.8799 43.7348 36.3549 44.9286M48.6672 31.6531C49.1429 31.7135 49.5962 31.8662 49.9032 32.0189C50.6774 32.4038 52.803 30.2547 53.7689 29.1321C53.7725 28.9721 53.7742 28.8117 53.7742 28.6509C53.7742 16.6935 44.0256 7 32 7C19.9745 7 10.2258 16.6935 10.2258 28.6509C10.2258 28.8117 10.2276 28.9721 10.2311 29.1321C11.1971 30.2547 13.3226 32.4038 14.0968 32.0189C14.4039 31.8662 14.8571 31.7135 15.3329 31.6531M48.6672 31.6531C48.8435 30.6789 48.9355 29.6756 48.9355 28.6509C48.9355 28.328 48.9264 28.0072 48.9083 27.6887M48.9083 27.6887C44.7238 28.9178 36.3549 34.0866 36.3549 44.9286M48.9083 27.6887C48.6767 23.5997 46.9778 19.9007 44.3269 17.1038M36.3549 44.9286C34.9653 45.2952 33.5056 45.4906 32 45.4906C30.4944 45.4906 29.0348 45.2952 27.6452 44.9286M44.3269 17.1038C41.2387 13.8454 36.8582 11.8113 32 11.8113C27.1418 11.8113 22.7614 13.8454 19.6731 17.1038M44.3269 17.1038C40.2652 18.9153 35.9463 19.4996 32 19.4371C28.0537 19.4996 23.7348 18.9153 19.6731 17.1038M17.138 36.7314C17.3316 35.5974 17.4839 34.3973 17.4839 33.4623C17.4839 31.82 16.3564 31.5231 15.3329 31.6531M17.138 36.7314C19.3387 40.7249 23.1201 43.7348 27.6452 44.9286M15.3329 31.6531C15.1566 30.6789 15.0645 29.6756 15.0645 28.6509C15.0645 28.328 15.0737 28.0072 15.0917 27.6887M15.0917 27.6887C19.2762 28.9178 27.6452 34.0866 27.6452 44.9286M15.0917 27.6887C15.3234 23.5997 17.0222 19.9007 19.6731 17.1038M35.3871 28.6509C35.3871 30.511 33.8707 32.0189 32 32.0189C30.1294 32.0189 28.6129 30.511 28.6129 28.6509C28.6129 26.7909 30.1294 25.283 32 25.283C33.8707 25.283 35.3871 26.7909 35.3871 28.6509Z" stroke="#00CEBF" stroke-width="3" stroke-linejoin="round"/>
<path d="M57.1613 39.2358C57.3226 37.3113 57.6452 33.0774 57.6452 31.5377C57.6452 29.6132 57.1613 29.1321 56.1935 28.6509C55.4194 28.266 54.2545 28.8113 53.7689 29.1321C52.8029 30.2547 50.6774 32.4038 49.9032 32.0189C49.5961 31.8662 49.1429 31.7135 48.6671 31.6531C47.6437 31.5231 46.5161 31.82 46.5161 33.4623C46.5161 34.3973 46.6684 35.5974 46.862 36.7314C47.0669 37.9313 47.318 39.0573 47.4839 39.717M57.1613 39.2358L50.8175 39.5512L47.4839 39.717M57.1613 39.2358H58.129L62 55.1132L51.8387 58L47.9672 43.3715L47 39.717H47.4839M6.83871 39.2358C6.67742 37.3113 6.35484 33.0774 6.35484 31.5377C6.35484 29.6132 6.83871 29.1321 7.80645 28.6509C8.58064 28.266 9.74545 28.8113 10.2311 29.1321C11.1971 30.2547 13.3226 32.4038 14.0968 32.0189C14.4039 31.8662 14.8571 31.7135 15.3329 31.6531C16.3563 31.5231 17.4839 31.82 17.4839 33.4623C17.4839 34.3973 17.3316 35.5974 17.138 36.7314C16.9331 37.9313 16.682 39.0573 16.5161 39.717M6.83871 39.2358L13.1825 39.5512L16.5161 39.717M6.83871 39.2358H5.87097L2 55.1132L12.1613 58L16.0328 43.3715L17 39.717H16.5161" stroke="#003E47" stroke-width="3" stroke-linejoin="round"/>
</svg>
