<svg width="64" height="64" viewBox="0 0 64 64" fill="none" xmlns="http://www.w3.org/2000/svg">
<path d="M26.1787 45.1302C25.7203 44.4401 24.7893 44.2524 24.0992 44.7108C23.4092 45.1692 23.2214 46.1002 23.6798 46.7902L26.1787 45.1302ZM26.4289 20.0449C25.8403 20.6278 25.8357 21.5776 26.4187 22.1662C27.0016 22.7548 27.9514 22.7593 28.54 22.1764L26.4289 20.0449ZM28.385 28.3053C29.2134 28.3053 29.885 27.6338 29.885 26.8053C29.885 25.9769 29.2134 25.3053 28.385 25.3053V28.3053ZM12.854 25.3053C12.0256 25.3053 11.354 25.9769 11.354 26.8053C11.354 27.6338 12.0256 28.3053 12.854 28.3053V25.3053ZM22.1726 35.0354C23.001 35.0354 23.6726 34.3638 23.6726 33.5354C23.6726 32.707 23.001 32.0354 22.1726 32.0354V35.0354ZM2.5 32.0354C1.67157 32.0354 1 32.707 1 33.5354C1 34.3638 1.67157 35.0354 2.5 35.0354V32.0354ZM26.8319 41.2478C27.6603 41.2478 28.3319 40.5762 28.3319 39.7478C28.3319 38.9194 27.6603 38.2478 26.8319 38.2478V41.2478ZM12.854 38.2478C12.0256 38.2478 11.354 38.9194 11.354 39.7478C11.354 40.5762 12.0256 41.2478 12.854 41.2478V38.2478ZM37.1858 8.73895C36.3574 8.73895 35.6858 9.41053 35.6858 10.239C35.6858 11.0674 36.3574 11.739 37.1858 11.739V8.73895ZM45.469 11.739C46.2975 11.739 46.969 11.0674 46.969 10.239C46.969 9.41053 46.2975 8.73895 45.469 8.73895V11.739ZM55.4263 21.5184C54.8479 22.1114 54.8597 23.0611 55.4528 23.6395C56.0458 24.2179 56.9955 24.2061 57.5739 23.613L55.4263 21.5184ZM57.9191 16.9438C57.3333 16.358 56.3835 16.358 55.7977 16.9438C55.212 17.5296 55.212 18.4793 55.7977 19.0651L57.9191 16.9438ZM59.9393 23.2067C60.5251 23.7925 61.4749 23.7925 62.0607 23.2067C62.6464 22.6209 62.6464 21.6712 62.0607 21.0854L59.9393 23.2067ZM59.5 35.0885C59.5 45.1249 51.3639 53.2611 41.3274 53.2611V56.2611C53.0207 56.2611 62.5 46.7818 62.5 35.0885H59.5ZM41.3274 16.9159C51.3639 16.9159 59.5 25.0521 59.5 35.0885H62.5C62.5 23.3952 53.0207 13.9159 41.3274 13.9159V16.9159ZM41.3274 53.2611C35.0053 53.2611 29.4363 50.034 26.1787 45.1302L23.6798 46.7902C27.4698 52.4953 33.9585 56.2611 41.3274 56.2611V53.2611ZM28.54 22.1764C31.8251 18.9228 36.3404 16.9159 41.3274 16.9159V13.9159C35.5182 13.9159 30.2529 16.2575 26.4289 20.0449L28.54 22.1764ZM28.385 25.3053H12.854V28.3053H28.385V25.3053ZM22.1726 32.0354H2.5V35.0354H22.1726V32.0354ZM26.8319 38.2478H12.854V41.2478H26.8319V38.2478ZM42.8274 15.4159V10.239H39.8274V15.4159H42.8274ZM41.3274 8.73895H37.1858V11.739H41.3274V8.73895ZM41.3274 11.739H45.469V8.73895H41.3274V11.739ZM57.5739 23.613L60.003 21.1226L57.8554 19.0279L55.4263 21.5184L57.5739 23.613ZM59.9899 19.0146L57.9191 16.9438L55.7977 19.0651L57.8685 21.1359L59.9899 19.0146ZM57.8685 21.1359L59.9393 23.2067L62.0607 21.0854L59.9899 19.0146L57.8685 21.1359Z" fill="#003E47"/>
<path d="M35.1151 37.677L41.3274 42.3363L50.646 27.8407" stroke="#00CEBF" stroke-width="3" stroke-linecap="round" stroke-linejoin="round"/>
</svg>
