<svg width="64" height="64" viewBox="0 0 64 64" fill="none" xmlns="http://www.w3.org/2000/svg">
<path d="M21 48C21 55 12 61 12 61C12 61 3 55 3 48C3 45.6131 3.94821 43.3239 5.63604 41.636C7.32387 39.9482 9.61305 39 12 39C14.3869 39 16.6761 39.9482 18.364 41.636C20.0518 43.3239 21 45.6131 21 48Z" stroke="#003E47" stroke-width="3" stroke-linecap="round" stroke-linejoin="round"/>
<path d="M61 12C61 19 52 25 52 25C52 25 43 19 43 12C43 9.61305 43.9482 7.32387 45.636 5.63604C47.3239 3.94821 49.6131 3 52 3C54.3869 3 56.6761 3.94821 58.364 5.63604C60.0518 7.32387 61 9.61305 61 12Z" stroke="#003E47" stroke-width="3" stroke-linecap="round" stroke-linejoin="round"/>
<path d="M12 51C13.6569 51 15 49.6569 15 48C15 46.3431 13.6569 45 12 45C10.3431 45 9 46.3431 9 48C9 49.6569 10.3431 51 12 51Z" stroke="#00CEBF" stroke-width="3" stroke-linecap="round" stroke-linejoin="round"/>
<path d="M52 15C53.6569 15 55 13.6569 55 12C55 10.3431 53.6569 9 52 9C50.3431 9 49 10.3431 49 12C49 13.6569 50.3431 15 52 15Z" stroke="#00CEBF" stroke-width="3" stroke-linecap="round" stroke-linejoin="round"/>
<path d="M20 60.5L47.5 48.5L26 36.5L46.5 27" stroke="#00CEBF" stroke-width="3" stroke-linecap="round" stroke-linejoin="round"/>
</svg>
