<svg width="32" height="32" viewBox="0 0 32 32" fill="none" xmlns="http://www.w3.org/2000/svg">
<rect width="32" height="32" rx="16" fill="#D93025"/>
<path opacity="0.3" d="M24.9995 8.66748H7.00079L7.66746 23.1665H24.3329L24.9995 8.66748Z" fill="white"/>
<path opacity="0.3" d="M24.9995 8.66748H7.00079L15.2917 14.8543H16.8334L24.9995 8.66748Z" fill="white"/>
<path opacity="0.1" d="M8.5 23.1667L16 16.4167L23.5 23.1667H8.5Z" fill="white"/>
<path fill-rule="evenodd" clip-rule="evenodd" d="M8.50068 9.91764C8.50068 9.22769 7.94172 8.66772 7.25077 8.66772C6.56082 8.66772 6.00085 9.22769 6.00085 9.91764C6.00085 12.5794 6.00085 18.798 6.00085 21.6668C6.00085 22.4958 6.67281 23.1667 7.50075 23.1667C8.03271 23.1667 8.50068 23.1667 8.50068 23.1667C8.50068 23.1667 8.50068 13.4364 8.50068 9.91764Z" fill="white"/>
<path fill-rule="evenodd" clip-rule="evenodd" d="M23.4996 9.91739C23.4996 9.22744 24.0596 8.66748 24.7495 8.66748C24.7505 8.66748 24.7515 8.66748 24.7515 8.66748C25.4415 8.66748 25.9995 9.22644 25.9995 9.91539C25.9995 12.5762 25.9995 18.7968 25.9995 21.6666C25.9995 22.4955 25.3285 23.1665 24.4996 23.1665C23.9686 23.1665 23.4996 23.1665 23.4996 23.1665C23.4996 23.1665 23.4996 13.4361 23.4996 9.91739Z" fill="white"/>
<path fill-rule="evenodd" clip-rule="evenodd" d="M6.62466 10.9993C6.33768 10.8333 6.12869 10.5613 6.0427 10.2413C5.95671 9.92136 6.0017 9.58139 6.16769 9.29441C6.16769 9.29441 6.16869 9.29341 6.16869 9.29241C6.33468 9.00543 6.60766 8.79644 6.92764 8.71045C7.24762 8.62446 7.58859 8.66945 7.87557 8.83544L16 13.5261L24.1264 8.83444C24.4134 8.66845 24.7534 8.62346 25.0734 8.70945C25.3933 8.79544 25.6653 9.00443 25.8313 9.29141L25.8323 9.29241C25.9983 9.57939 26.0433 9.92136 25.9573 10.2413C25.8713 10.5613 25.6613 10.8343 25.3743 11.0003L18.4998 14.969L16 16.4129L13.5002 14.969L6.62466 10.9993Z" fill="white"/>
</svg>
