<svg width="64" height="64" viewBox="0 0 64 64" fill="none" xmlns="http://www.w3.org/2000/svg">
<path d="M29.0968 50.6129H43.9355C45.1647 50.6129 46.1613 49.6164 46.1613 48.3871M46.1613 48.3871L54.3226 39.4839C55.0645 38.9893 56.9935 38.4452 58.7742 40.2258C60.5548 42.0065 60.0107 43.9355 59.5161 44.6774L50.6129 56.5484C49.6236 58.0323 46.6064 61 42.4516 61H23.9032L15 58.0323V43.1936C15.4946 41.957 17.9677 39.4839 23.9032 39.4839C29.8387 39.4839 32.3118 41.957 32.8064 43.1936H40.9677C43.836 43.1936 46.1613 45.5188 46.1613 48.3871ZM4 39V61H13.0027C14.1073 61 15 60.1046 15 59V41C15 39.8954 14.1046 39 13 39H4Z" stroke="#003E47" stroke-width="3" stroke-linecap="round" stroke-linejoin="round"/>
<path d="M36.9583 26.375H37.6458C39.5443 26.375 41.0833 24.836 41.0833 22.9375C41.0833 21.039 39.5443 19.5 37.6458 19.5H36.2708C34.3724 19.5 32.8333 17.961 32.8333 16.0625C32.8333 14.164 34.3724 12.625 36.2708 12.625H36.9583M36.9583 26.375H32.8333M36.9583 26.375V30.5M41.0833 12.625H36.9583M36.9583 12.625V8.5M53 19.5C53 28.6127 45.6127 36 36.5 36C27.3873 36 20 28.6127 20 19.5C20 10.3873 27.3873 3 36.5 3C45.6127 3 53 10.3873 53 19.5Z" stroke="#00CEBF" stroke-width="3" stroke-linecap="round" stroke-linejoin="round"/>
</svg>
