<svg width="64" height="64" viewBox="0 0 64 64" fill="none" xmlns="http://www.w3.org/2000/svg">
<path d="M29.41 50.1408H44.5268C45.8119 50.1408 46.8537 49.0989 46.8537 47.8138M46.8537 47.8138L55.1964 38.5059C55.9548 37.9888 57.9267 37.42 59.7469 39.2815C61.5671 41.1431 61.011 43.1598 60.5054 43.9355L51.4043 56.346C50.3931 57.8974 47.3088 61 43.0616 61H24.1011L15 57.8974V42.3842C15.5056 41.0914 18.0337 38.5059 24.1011 38.5059C30.1685 38.5059 32.6965 41.0914 33.2021 42.3842H41.4241C44.4228 42.3842 46.8537 44.8151 46.8537 47.8138ZM3 38V61H13.0007C14.1053 61 15 60.1046 15 59V40C15 38.8954 14.1046 38 13 38H3Z" stroke="#003E47" stroke-width="3" stroke-linecap="round" stroke-linejoin="round"/>
<path d="M30.18 17.5L33.42 21.2593L40.44 14.2778M34.5 3L21 10.5185C21.54 16.0679 24.996 28.1333 34.5 32C44.868 28.563 47.82 16.2469 48 10.5185L34.5 3Z" stroke="#00CEBF" stroke-width="3" stroke-linecap="round" stroke-linejoin="round"/>
</svg>
