<svg width="145" height="49" viewBox="0 0 145 49" fill="none" xmlns="http://www.w3.org/2000/svg">
<rect x="0.371582" y="0.988037" width="48.0121" height="48.0121" rx="14.3587" fill="#00CEBF"/>
<path fill-rule="evenodd" clip-rule="evenodd" d="M30.1835 9.99023H24.3775H18.5716C17.4771 10.0716 15.1543 10.9905 14.6191 14.0156C14.3759 14.8898 13.7192 18.0654 13.0382 23.7742L11.822 23.4692V21.3345C11.7612 21.1719 11.518 20.8588 11.0315 20.9076C10.4235 20.9686 9.87619 21.0906 9.87619 21.6395V24.0791C9.85593 24.2621 9.96132 24.6525 10.5451 24.75C11.2748 24.872 11.6396 24.811 11.822 24.4451L12.9774 25.055C12.8963 26.2138 12.7341 28.7145 12.7341 29.4463C12.7341 30.1782 12.9368 32.5569 13.0382 33.6547V39.3879C13.0584 39.5912 13.2084 39.9978 13.6462 39.9978H16.1393C16.3217 39.9774 16.6866 39.7904 16.6866 39.2049V37.8021C17.3149 37.9241 18.9608 38.168 20.5174 38.168H24.3775H28.2377C29.7943 38.168 31.4402 37.9241 32.0685 37.8021V39.2049C32.0685 39.7904 32.4333 39.9774 32.6158 39.9978H35.1089C35.5467 39.9978 35.6967 39.5912 35.7169 39.3879V33.6547C35.8183 32.5569 36.021 30.1782 36.021 29.4463C36.021 28.7145 35.8588 26.2138 35.7777 25.055L36.9331 24.4451C37.1155 24.811 37.4803 24.872 38.21 24.75C38.7938 24.6525 38.8992 24.2621 38.8789 24.0791V21.6395C38.8789 21.0906 38.3316 20.9686 37.7236 20.9076C37.2371 20.8588 36.9939 21.1719 36.9331 21.3345V23.4692L35.7169 23.7742C35.0359 18.0654 34.3792 14.8898 34.1359 14.0156C33.6008 10.9905 31.278 10.0716 30.1835 9.99023ZM24.3775 16.2113C26.2423 16.191 30.2686 16.1747 31.582 16.2723C33.2238 16.3943 33.4063 16.6992 33.6495 17.8581C33.8471 18.7994 34.165 21.6321 34.31 22.9239C34.3435 23.2224 34.3678 23.4386 34.3792 23.5302L34.3827 23.5585C34.4481 24.0765 34.6415 25.6073 32.4333 25.7869C32.2038 25.8056 31.9872 25.8236 31.7782 25.841C29.9394 25.9941 28.6911 26.0981 24.3775 26.1528C20.064 26.0981 18.8157 25.9941 16.9769 25.841C16.7679 25.8236 16.5513 25.8056 16.3217 25.7869C14.1136 25.6073 14.3069 24.0765 14.3724 23.5585L14.3759 23.5302C14.3873 23.4386 14.4116 23.2224 14.4451 22.9239C14.5901 21.6321 14.908 18.7994 15.1056 17.8581C15.3488 16.6992 15.5313 16.3943 17.173 16.2723C18.4865 16.1747 22.5128 16.191 24.3775 16.2113ZM30.1835 33.1058C30.0862 32.9106 30.1835 32.5772 30.2443 32.4349C30.6507 31.4157 31.1845 31.2481 31.9521 31.007C32.1032 30.9596 32.2633 30.9093 32.4333 30.8491C33.0822 30.6194 33.3717 30.4378 33.6327 30.274C33.7875 30.1769 33.9322 30.0861 34.1359 29.9953C34.6832 29.7513 34.744 30.0563 34.744 30.2392C34.744 30.2532 34.7444 30.2751 34.7448 30.3038C34.7505 30.6496 34.7722 31.9843 34.3792 32.4349C33.9907 32.8802 32.64 33.0207 31.9909 33.0882C31.9288 33.0947 31.8731 33.1005 31.8253 33.1058C31.7307 33.1163 31.6233 33.1305 31.5099 33.1455C30.9671 33.2173 30.2841 33.3076 30.1835 33.1058ZM24.3775 31.2761H27.812C28.0755 31.2964 28.5782 31.4834 28.4809 32.069C28.3593 32.8008 27.812 33.6547 26.5959 33.7157C25.6229 33.7645 24.7221 33.8174 24.3775 33.8377C24.033 33.8174 23.1321 33.7645 22.1592 33.7157C20.9431 33.6547 20.3958 32.8008 20.2742 32.069C20.1769 31.4834 20.6796 31.2964 20.9431 31.2761H24.3775ZM18.5716 33.1058C18.6689 32.9106 18.5716 32.5772 18.5108 32.4349C18.1044 31.4157 17.5705 31.2481 16.803 31.007C16.6519 30.9596 16.4918 30.9093 16.3217 30.8491C15.6729 30.6194 15.3834 30.4378 15.1224 30.274C14.9676 30.1769 14.8229 30.0861 14.6191 29.9953C14.0719 29.7513 14.0111 30.0563 14.0111 30.2392C14.0111 30.2532 14.0107 30.2751 14.0103 30.3038C14.0046 30.6496 13.9829 31.9843 14.3759 32.4349C14.7644 32.8802 16.1151 33.0207 16.7642 33.0882C16.8263 33.0947 16.882 33.1005 16.9298 33.1058C17.0244 33.1163 17.1318 33.1305 17.2452 33.1455C17.788 33.2173 18.471 33.3076 18.5716 33.1058Z" fill="white"/>
<path opacity="0.7" d="M62.8021 35.5113C62.9712 35.5113 63.0959 35.6448 63.0959 35.8229V38.2487C63.0959 38.4223 62.9668 38.5559 62.7976 38.5559C62.624 38.5559 62.495 38.4223 62.495 38.2487V36.7977L61.943 37.6656C61.8584 37.7992 61.7783 37.857 61.6581 37.857C61.5424 37.857 61.4578 37.7992 61.3733 37.6656L60.8213 36.7888V38.2487C60.8213 38.4223 60.6922 38.5559 60.5231 38.5559C60.3495 38.5559 60.2204 38.4223 60.2204 38.2487V35.8229C60.2204 35.6448 60.3451 35.5113 60.5142 35.5113C60.6433 35.5113 60.7279 35.5736 60.8302 35.7427L61.6581 37.0558L62.486 35.7427C62.5929 35.5736 62.673 35.5113 62.8021 35.5113ZM64.0479 35.1329C64.2482 35.1329 64.4218 35.2932 64.4218 35.4979C64.4218 35.6982 64.2482 35.8585 64.0479 35.8585C63.8387 35.8585 63.6696 35.6982 63.6696 35.4979C63.6696 35.2932 63.8387 35.1329 64.0479 35.1329ZM64.0435 38.5559C63.8743 38.5559 63.7453 38.4223 63.7453 38.2487V36.5529C63.7453 36.3793 63.8743 36.2502 64.0479 36.2502C64.2171 36.2502 64.3462 36.3793 64.3462 36.5529V38.2487C64.3462 38.4223 64.2171 38.5559 64.0435 38.5559ZM65.3936 36.3526L66.0479 37.0959C66.1191 37.1805 66.1503 37.2428 66.1503 37.314C66.1503 37.3763 66.128 37.4342 66.0613 37.5276L65.3491 38.449C65.3001 38.5247 65.2289 38.5559 65.1354 38.5559C64.9796 38.5559 64.8595 38.4357 64.8595 38.2799C64.8595 38.222 64.8773 38.1642 64.9262 38.0974L65.5271 37.3095L64.993 36.7264C64.9307 36.6597 64.904 36.5929 64.904 36.5172C64.904 36.3659 65.0197 36.2546 65.1755 36.2502C65.2601 36.2457 65.3313 36.2769 65.3936 36.3526ZM68.1666 38.0974C68.2112 38.1686 68.2334 38.222 68.2334 38.2799C68.2334 38.4357 68.1132 38.5559 67.9574 38.5559C67.864 38.5559 67.7972 38.5202 67.7438 38.449L67.0316 37.5276C66.9648 37.4342 66.9426 37.3763 66.9426 37.314C66.9426 37.2428 66.9737 37.1805 67.045 37.0959L67.6993 36.3526C67.7616 36.2769 67.8328 36.2457 67.9174 36.2502C68.0732 36.2546 68.1889 36.3659 68.1889 36.5172C68.1889 36.5929 68.1577 36.6597 68.0999 36.7264L67.5613 37.3095L68.1666 38.0974ZM66.5509 36.2502C66.72 36.2502 66.8491 36.3793 66.8491 36.5529V38.2487C66.8491 38.4268 66.72 38.5559 66.5509 38.5559C66.3773 38.5559 66.2482 38.4223 66.2482 38.2487V36.5529C66.2482 36.3793 66.3773 36.2502 66.5509 36.2502ZM70.48 36.2502C70.6492 36.2502 70.7782 36.3793 70.7782 36.5529V38.2487C70.7782 38.4223 70.6492 38.5514 70.48 38.5514C70.3109 38.5514 70.1818 38.4223 70.1818 38.2487V37.6167H69.3494V38.2487C69.3494 38.4223 69.2203 38.5514 69.0512 38.5514C68.8776 38.5514 68.7485 38.4223 68.7485 38.2487V36.5529C68.7485 36.3793 68.8776 36.2502 69.0512 36.2502C69.2203 36.2502 69.3494 36.3793 69.3494 36.5529V37.1048H70.1818V36.5529C70.1818 36.3793 70.3064 36.2502 70.48 36.2502ZM72.2899 36.2502C72.8952 36.2502 73.2424 36.5929 73.2424 37.1938V38.2532C73.2424 38.4268 73.1178 38.5514 72.9531 38.5514C72.8062 38.5514 72.6905 38.4535 72.6638 38.3199C72.5035 38.4713 72.281 38.5559 72.0184 38.5559C71.5643 38.5559 71.2572 38.2888 71.2572 37.8971C71.2572 37.5009 71.5732 37.2561 72.0896 37.2561H72.6415V37.1582C72.6415 36.9134 72.4946 36.771 72.2276 36.771C72.0718 36.771 71.9338 36.8244 71.8047 36.9356C71.7335 36.9891 71.6845 37.0069 71.6267 37.0069C71.4798 37.0069 71.3685 36.8956 71.3685 36.7621C71.3685 36.6775 71.413 36.5974 71.4931 36.5217C71.6801 36.3481 71.9694 36.2502 72.2899 36.2502ZM72.1786 38.1152C72.4412 38.1152 72.6415 37.9282 72.6415 37.679V37.6523H72.1697C71.9694 37.6523 71.8626 37.7279 71.8626 37.8748C71.8626 38.0217 71.9828 38.1152 72.1786 38.1152ZM75.1026 36.2502C75.7213 36.2502 76.1709 36.7309 76.1709 37.3986C76.1709 38.0662 75.7213 38.5559 75.1026 38.5559C74.8267 38.5559 74.5952 38.4579 74.4439 38.2888V39.0544C74.4439 39.228 74.3148 39.3571 74.1456 39.3571C73.9721 39.3571 73.843 39.228 73.843 39.0544V36.5439C73.843 36.3748 73.9721 36.2457 74.1412 36.2457C74.3014 36.2457 74.4216 36.3659 74.4305 36.5306C74.5819 36.3526 74.8178 36.2502 75.1026 36.2502ZM74.9914 38.0084C75.3207 38.0084 75.5611 37.7547 75.5611 37.403C75.5611 37.0469 75.3252 36.7932 74.9914 36.7932C74.6575 36.7932 74.435 37.038 74.435 37.3986C74.435 37.7591 74.662 38.0084 74.9914 38.0084ZM77.6967 36.2502C78.3555 36.2502 78.8807 36.7576 78.8807 37.3986C78.8807 38.0395 78.3555 38.5514 77.6922 38.5514C77.0335 38.5514 76.5172 38.044 76.5172 37.3986C76.5172 36.7532 77.0335 36.2502 77.6967 36.2502ZM77.6967 36.7977C77.3673 36.7977 77.127 37.0514 77.127 37.403C77.127 37.7502 77.3673 37.9995 77.6967 37.9995C78.0216 37.9995 78.2664 37.7458 78.2664 37.403C78.2664 37.0558 78.0216 36.7977 77.6967 36.7977ZM81.4887 37.995C81.6623 37.995 81.7913 38.1241 81.7913 38.2977V38.8763C81.7913 39.0544 81.6623 39.1835 81.4931 39.1835C81.324 39.1835 81.1949 39.0499 81.1949 38.8763V38.5024H79.6815V38.8763C79.6815 39.0544 79.5524 39.1835 79.3833 39.1835C79.2097 39.1835 79.0806 39.0499 79.0806 38.8763V38.2977C79.0806 38.1241 79.2097 37.995 79.3877 37.995H79.41C79.6726 37.6923 79.775 37.2917 79.775 36.5929V36.5885C79.775 36.4193 79.9085 36.2991 80.0777 36.2991H81.097C81.2706 36.2991 81.3996 36.4327 81.3996 36.6063V37.995H81.4887ZM80.3714 36.8066C80.367 37.3674 80.2646 37.7458 80.0421 37.995H80.8032V36.8066H80.3714ZM83.9681 36.2502C84.1373 36.2502 84.2663 36.3793 84.2663 36.5529V38.2487C84.2663 38.4223 84.1373 38.5514 83.9681 38.5514C83.799 38.5514 83.6699 38.4223 83.6699 38.2487V37.6167H82.8375V38.2487C82.8375 38.4223 82.7084 38.5514 82.5393 38.5514C82.3657 38.5514 82.2366 38.4223 82.2366 38.2487V36.5529C82.2366 36.3793 82.3657 36.2502 82.5393 36.2502C82.7084 36.2502 82.8375 36.3793 82.8375 36.5529V37.1048H83.6699V36.5529C83.6699 36.3793 83.7945 36.2502 83.9681 36.2502ZM85.2038 35.1329C85.4041 35.1329 85.5777 35.2932 85.5777 35.4979C85.5777 35.6982 85.4041 35.8585 85.2038 35.8585C84.9946 35.8585 84.8254 35.6982 84.8254 35.4979C84.8254 35.2932 84.9946 35.1329 85.2038 35.1329ZM85.1993 38.5559C85.0302 38.5559 84.9011 38.4223 84.9011 38.2487V36.5529C84.9011 36.3793 85.0302 36.2502 85.2038 36.2502C85.3729 36.2502 85.502 36.3793 85.502 36.5529V38.2487C85.502 38.4223 85.3729 38.5559 85.1993 38.5559ZM87.6902 38.5559C87.521 38.5559 87.3919 38.4268 87.3919 38.2532V36.6018C87.3919 36.4282 87.521 36.2991 87.6946 36.2991H89.0878C89.2614 36.2991 89.3905 36.4282 89.3905 36.6018V38.2532C89.3905 38.4268 89.2614 38.5559 89.0878 38.5559C88.9187 38.5559 88.7896 38.4268 88.7896 38.2532V36.8066H87.9928V38.2532C87.9928 38.4268 87.8637 38.5559 87.6902 38.5559ZM90.9029 36.2502C91.5082 36.2502 91.8554 36.5929 91.8554 37.1938V38.2532C91.8554 38.4268 91.7308 38.5514 91.5661 38.5514C91.4192 38.5514 91.3035 38.4535 91.2767 38.3199C91.1165 38.4713 90.894 38.5559 90.6313 38.5559C90.1773 38.5559 89.8702 38.2888 89.8702 37.8971C89.8702 37.5009 90.1862 37.2561 90.7026 37.2561H91.2545V37.1582C91.2545 36.9134 91.1076 36.771 90.8405 36.771C90.6847 36.771 90.5468 36.8244 90.4177 36.9356C90.3465 36.9891 90.2975 37.0069 90.2396 37.0069C90.0927 37.0069 89.9815 36.8956 89.9815 36.7621C89.9815 36.6775 90.026 36.5974 90.1061 36.5217C90.293 36.3481 90.5824 36.2502 90.9029 36.2502ZM90.7916 38.1152C91.0542 38.1152 91.2545 37.9282 91.2545 37.679V37.6523H90.7827C90.5824 37.6523 90.4755 37.7279 90.4755 37.8748C90.4755 38.0217 90.5957 38.1152 90.7916 38.1152ZM93.4886 38.5559C92.8254 38.5559 92.3091 38.044 92.3091 37.3986C92.3091 36.7532 92.8254 36.2502 93.4886 36.2502C93.8625 36.2502 94.2097 36.4282 94.3788 36.6864C94.4189 36.7487 94.4322 36.7977 94.4322 36.8466C94.4322 36.9935 94.3121 37.1137 94.1652 37.1137C94.0806 37.1137 94.0138 37.087 93.9604 37.0202C93.8491 36.8867 93.6934 36.7977 93.4975 36.7977C93.1592 36.7977 92.9189 37.0469 92.9189 37.3986C92.9189 37.7547 93.1592 38.0039 93.4975 38.0039C93.6889 38.0039 93.8402 37.9149 93.9604 37.7814C94.0227 37.7101 94.0851 37.6879 94.1652 37.6879C94.3121 37.6879 94.4322 37.8081 94.4322 37.955C94.4322 38.0084 94.4189 38.0529 94.3833 38.1063C94.2008 38.3867 93.8803 38.5559 93.4886 38.5559ZM95.7843 36.2502C96.3897 36.2502 96.7368 36.5929 96.7368 37.1938V38.2532C96.7368 38.4268 96.6122 38.5514 96.4475 38.5514C96.3006 38.5514 96.1849 38.4535 96.1582 38.3199C95.998 38.4713 95.7754 38.5559 95.5128 38.5559C95.0588 38.5559 94.7516 38.2888 94.7516 37.8971C94.7516 37.5009 95.0677 37.2561 95.584 37.2561H96.1359V37.1582C96.1359 36.9134 95.9891 36.771 95.722 36.771C95.5662 36.771 95.4282 36.8244 95.2991 36.9356C95.2279 36.9891 95.179 37.0069 95.1211 37.0069C94.9742 37.0069 94.8629 36.8956 94.8629 36.7621C94.8629 36.6775 94.9074 36.5974 94.9876 36.5217C95.1745 36.3481 95.4638 36.2502 95.7843 36.2502ZM95.673 38.1152C95.9356 38.1152 96.1359 37.9282 96.1359 37.679V37.6523H95.6641C95.4638 37.6523 95.357 37.7279 95.357 37.8748C95.357 38.0217 95.4772 38.1152 95.673 38.1152ZM97.7424 36.3526L98.3968 37.0959C98.468 37.1805 98.4991 37.2428 98.4991 37.314C98.4991 37.3763 98.4769 37.4342 98.4101 37.5276L97.6979 38.449C97.649 38.5247 97.5778 38.5559 97.4843 38.5559C97.3285 38.5559 97.2083 38.4357 97.2083 38.2799C97.2083 38.222 97.2261 38.1642 97.2751 38.0974L97.876 37.3095L97.3418 36.7264C97.2795 36.6597 97.2528 36.5929 97.2528 36.5172C97.2528 36.3659 97.3686 36.2546 97.5243 36.2502C97.6089 36.2457 97.6801 36.2769 97.7424 36.3526ZM100.515 38.0974C100.56 38.1686 100.582 38.222 100.582 38.2799C100.582 38.4357 100.462 38.5559 100.306 38.5559C100.213 38.5559 100.146 38.5202 100.093 38.449L99.3805 37.5276C99.3137 37.4342 99.2914 37.3763 99.2914 37.314C99.2914 37.2428 99.3226 37.1805 99.3938 37.0959L100.048 36.3526C100.11 36.2769 100.182 36.2457 100.266 36.2502C100.422 36.2546 100.538 36.3659 100.538 36.5172C100.538 36.5929 100.507 36.6597 100.449 36.7264L99.9101 37.3095L100.515 38.0974ZM98.8997 36.2502C99.0689 36.2502 99.198 36.3793 99.198 36.5529V38.2487C99.198 38.4268 99.0689 38.5559 98.8997 38.5559C98.7261 38.5559 98.5971 38.4223 98.5971 38.2487V36.5529C98.5971 36.3793 98.7261 36.2502 98.8997 36.2502ZM102.869 36.2502C103.038 36.2502 103.167 36.3793 103.167 36.5529V38.2487C103.167 38.4223 103.038 38.5559 102.869 38.5559C102.7 38.5559 102.571 38.4223 102.571 38.2487V37.2828L101.663 38.409C101.578 38.5113 101.498 38.5559 101.396 38.5559C101.226 38.5559 101.097 38.4223 101.097 38.2487V36.5529C101.097 36.3793 101.226 36.2502 101.4 36.2502C101.569 36.2502 101.698 36.3793 101.698 36.5529V37.5321L102.602 36.3971C102.686 36.2947 102.767 36.2502 102.869 36.2502ZM105.069 36.2502C105.688 36.2502 106.138 36.7309 106.138 37.3986C106.138 38.0662 105.688 38.5559 105.069 38.5559C104.793 38.5559 104.562 38.4579 104.411 38.2888V39.0544C104.411 39.228 104.282 39.3571 104.112 39.3571C103.939 39.3571 103.81 39.228 103.81 39.0544V36.5439C103.81 36.3748 103.939 36.2457 104.108 36.2457C104.268 36.2457 104.388 36.3659 104.397 36.5306C104.549 36.3526 104.785 36.2502 105.069 36.2502ZM104.958 38.0084C105.288 38.0084 105.528 37.7547 105.528 37.403C105.528 37.0469 105.292 36.7932 104.958 36.7932C104.624 36.7932 104.402 37.038 104.402 37.3986C104.402 37.7591 104.629 38.0084 104.958 38.0084ZM107.663 38.5559C107 38.5559 106.484 38.044 106.484 37.3986C106.484 36.7532 107 36.2502 107.663 36.2502C108.037 36.2502 108.385 36.4282 108.554 36.6864C108.594 36.7487 108.607 36.7977 108.607 36.8466C108.607 36.9935 108.487 37.1137 108.34 37.1137C108.255 37.1137 108.189 37.087 108.135 37.0202C108.024 36.8867 107.868 36.7977 107.672 36.7977C107.334 36.7977 107.094 37.0469 107.094 37.3986C107.094 37.7547 107.334 38.0039 107.672 38.0039C107.864 38.0039 108.015 37.9149 108.135 37.7814C108.198 37.7101 108.26 37.6879 108.34 37.6879C108.487 37.6879 108.607 37.8081 108.607 37.955C108.607 38.0084 108.594 38.0529 108.558 38.1063C108.376 38.3867 108.055 38.5559 107.663 38.5559ZM109.389 36.2502C109.559 36.2502 109.688 36.3793 109.688 36.5529V36.86H110.119C110.649 36.86 111.045 37.1627 111.045 37.679C111.045 38.1998 110.649 38.5024 110.119 38.5024H109.394C109.216 38.5024 109.087 38.3734 109.087 38.1953V36.5529C109.087 36.3793 109.211 36.2502 109.389 36.2502ZM110.075 37.3719H109.688V37.995H110.079C110.284 37.995 110.435 37.8882 110.435 37.6879C110.435 37.4876 110.284 37.3719 110.075 37.3719ZM113.501 38.0929C113.55 38.1553 113.572 38.2131 113.572 38.2799C113.572 38.4312 113.452 38.5559 113.296 38.5559C113.207 38.5559 113.136 38.5247 113.087 38.4579L112.335 37.5276C112.273 37.4475 112.246 37.3808 112.246 37.314C112.246 37.2428 112.277 37.176 112.353 37.0914L113.052 36.3392C113.105 36.2813 113.176 36.2457 113.256 36.2502C113.412 36.2546 113.532 36.3704 113.532 36.5217C113.532 36.5929 113.501 36.6686 113.443 36.7264L112.882 37.3184L113.501 38.0929ZM111.85 36.2502C112.023 36.2502 112.148 36.3793 112.148 36.5529V38.2487C112.148 38.4223 112.019 38.5559 111.85 38.5559C111.676 38.5559 111.547 38.4223 111.547 38.2487V36.5529C111.547 36.3793 111.676 36.2502 111.85 36.2502ZM114.358 35.1329C114.558 35.1329 114.732 35.2932 114.732 35.4979C114.732 35.6982 114.558 35.8585 114.358 35.8585C114.149 35.8585 113.979 35.6982 113.979 35.4979C113.979 35.2932 114.149 35.1329 114.358 35.1329ZM114.353 38.5559C114.184 38.5559 114.055 38.4223 114.055 38.2487V36.5529C114.055 36.3793 114.184 36.2502 114.358 36.2502C114.527 36.2502 114.656 36.3793 114.656 36.5529V38.2487C114.656 38.4223 114.527 38.5559 114.353 38.5559ZM116.844 38.5559C116.675 38.5559 116.546 38.4268 116.546 38.2532V36.6018C116.546 36.4282 116.675 36.2991 116.849 36.2991H118.242C118.415 36.2991 118.544 36.4282 118.544 36.6018V38.2532C118.544 38.4268 118.415 38.5559 118.242 38.5559C118.073 38.5559 117.944 38.4268 117.944 38.2532V36.8066H117.147V38.2532C117.147 38.4268 117.018 38.5559 116.844 38.5559ZM120.181 36.2502C120.782 36.2502 121.227 36.6864 121.227 37.2828V37.2962C121.227 37.4831 121.094 37.6033 120.898 37.6033H119.643C119.714 37.8793 119.937 38.0395 120.262 38.0395C120.422 38.0395 120.586 37.995 120.72 37.9104C120.765 37.8837 120.805 37.8704 120.849 37.8704C120.987 37.8704 121.094 37.9728 121.094 38.1107C121.094 38.2087 121.049 38.2799 120.943 38.3511C120.742 38.4846 120.502 38.5559 120.244 38.5559C119.549 38.5559 119.037 38.0618 119.037 37.403C119.037 36.7487 119.532 36.2502 120.181 36.2502ZM120.168 36.7353C119.905 36.7353 119.71 36.9089 119.643 37.1805H120.644C120.635 36.9178 120.449 36.7353 120.168 36.7353ZM122.978 36.2502C123.597 36.2502 124.046 36.7309 124.046 37.3986C124.046 38.0662 123.597 38.5559 122.978 38.5559C122.702 38.5559 122.471 38.4579 122.319 38.2888V39.0544C122.319 39.228 122.19 39.3571 122.021 39.3571C121.848 39.3571 121.719 39.228 121.719 39.0544V36.5439C121.719 36.3748 121.848 36.2457 122.017 36.2457C122.177 36.2457 122.297 36.3659 122.306 36.5306C122.457 36.3526 122.693 36.2502 122.978 36.2502ZM122.867 38.0084C123.196 38.0084 123.437 37.7547 123.437 37.403C123.437 37.0469 123.201 36.7932 122.867 36.7932C122.533 36.7932 122.311 37.038 122.311 37.3986C122.311 37.7591 122.538 38.0084 122.867 38.0084ZM125.537 36.2502C126.138 36.2502 126.583 36.6864 126.583 37.2828V37.2962C126.583 37.4831 126.449 37.6033 126.253 37.6033H124.998C125.069 37.8793 125.292 38.0395 125.617 38.0395C125.777 38.0395 125.942 37.995 126.075 37.9104C126.12 37.8837 126.16 37.8704 126.204 37.8704C126.342 37.8704 126.449 37.9728 126.449 38.1107C126.449 38.2087 126.405 38.2799 126.298 38.3511C126.098 38.4846 125.857 38.5559 125.599 38.5559C124.905 38.5559 124.393 38.0618 124.393 37.403C124.393 36.7487 124.887 36.2502 125.537 36.2502ZM125.523 36.7353C125.261 36.7353 125.065 36.9089 124.998 37.1805H126C125.991 36.9178 125.804 36.7353 125.523 36.7353ZM128.721 37.3273C128.934 37.4297 129.05 37.6078 129.05 37.8348C129.05 38.2265 128.725 38.5024 128.267 38.5024H127.381C127.203 38.5024 127.074 38.3734 127.074 38.1953V36.6063C127.074 36.4327 127.203 36.2991 127.381 36.2991H128.115C128.587 36.2991 128.899 36.5439 128.899 36.9134C128.899 37.0781 128.836 37.2205 128.721 37.3273ZM127.648 36.7799V37.1538H128.102C128.253 37.1538 128.342 37.087 128.342 36.9624C128.342 36.8422 128.262 36.7799 128.102 36.7799H127.648ZM128.218 38.0173C128.391 38.0173 128.498 37.9282 128.498 37.7903C128.498 37.6567 128.391 37.5766 128.218 37.5766H127.648V38.0173H128.218ZM130.54 36.2502C131.141 36.2502 131.586 36.6864 131.586 37.2828V37.2962C131.586 37.4831 131.452 37.6033 131.256 37.6033H130.001C130.072 37.8793 130.295 38.0395 130.62 38.0395C130.78 38.0395 130.945 37.995 131.078 37.9104C131.123 37.8837 131.163 37.8704 131.208 37.8704C131.345 37.8704 131.452 37.9728 131.452 38.1107C131.452 38.2087 131.408 38.2799 131.301 38.3511C131.101 38.4846 130.86 38.5559 130.602 38.5559C129.908 38.5559 129.396 38.0618 129.396 37.403C129.396 36.7487 129.89 36.2502 130.54 36.2502ZM130.526 36.7353C130.264 36.7353 130.068 36.9089 130.001 37.1805H131.003C130.994 36.9178 130.807 36.7353 130.526 36.7353ZM133.462 37.3674C133.658 37.4831 133.774 37.6745 133.774 37.8926C133.774 38.2932 133.387 38.5559 132.804 38.5559C132.496 38.5559 132.216 38.4668 132.042 38.3199C131.953 38.2532 131.913 38.182 131.913 38.0974C131.913 37.955 132.025 37.8437 132.171 37.8437C132.225 37.8437 132.269 37.857 132.327 37.8971C132.443 37.9906 132.612 38.0395 132.804 38.0395C133.053 38.0395 133.186 37.955 133.186 37.8081C133.186 37.6701 133.071 37.5944 132.866 37.5944H132.652C132.523 37.5944 132.425 37.4965 132.425 37.3719C132.425 37.2428 132.523 37.1493 132.652 37.1493H132.844C133.004 37.1493 133.097 37.0781 133.097 36.9579C133.097 36.8288 132.99 36.7665 132.772 36.7665C132.594 36.7665 132.461 36.8021 132.336 36.8867C132.278 36.9267 132.234 36.9446 132.176 36.9446C132.034 36.9446 131.918 36.8288 131.918 36.6864C131.918 36.6018 131.958 36.5306 132.056 36.4594C132.22 36.3303 132.483 36.2502 132.781 36.2502C133.333 36.2502 133.685 36.4994 133.685 36.8956C133.685 37.087 133.605 37.2472 133.462 37.3674ZM135.291 36.2502C135.892 36.2502 136.337 36.6864 136.337 37.2828V37.2962C136.337 37.4831 136.203 37.6033 136.008 37.6033H134.752C134.824 37.8793 135.046 38.0395 135.371 38.0395C135.531 38.0395 135.696 37.995 135.829 37.9104C135.874 37.8837 135.914 37.8704 135.959 37.8704C136.097 37.8704 136.203 37.9728 136.203 38.1107C136.203 38.2087 136.159 38.2799 136.052 38.3511C135.852 38.4846 135.611 38.5559 135.353 38.5559C134.659 38.5559 134.147 38.0618 134.147 37.403C134.147 36.7487 134.641 36.2502 135.291 36.2502ZM135.278 36.7353C135.015 36.7353 134.819 36.9089 134.752 37.1805H135.754C135.745 36.9178 135.558 36.7353 135.278 36.7353ZM138.56 36.2502C138.729 36.2502 138.858 36.3793 138.858 36.5529V38.2487C138.858 38.4223 138.729 38.5514 138.56 38.5514C138.39 38.5514 138.261 38.4223 138.261 38.2487V37.6167H137.429V38.2487C137.429 38.4223 137.3 38.5514 137.131 38.5514C136.957 38.5514 136.828 38.4223 136.828 38.2487V36.5529C136.828 36.3793 136.957 36.2502 137.131 36.2502C137.3 36.2502 137.429 36.3793 137.429 36.5529V37.1048H138.261V36.5529C138.261 36.3793 138.386 36.2502 138.56 36.2502ZM141.228 36.2502C141.398 36.2502 141.527 36.3793 141.527 36.5529V38.2487C141.527 38.4223 141.398 38.5514 141.228 38.5514C141.059 38.5514 140.93 38.4223 140.93 38.2487V37.6167H140.098V38.2487C140.098 38.4223 139.969 38.5514 139.8 38.5514C139.626 38.5514 139.497 38.4223 139.497 38.2487V36.5529C139.497 36.3793 139.626 36.2502 139.8 36.2502C139.969 36.2502 140.098 36.3793 140.098 36.5529V37.1048H140.93V36.5529C140.93 36.3793 141.055 36.2502 141.228 36.2502ZM143.786 36.2991C143.964 36.2991 144.093 36.4327 144.093 36.6063V38.2487C144.093 38.4223 143.964 38.5559 143.795 38.5559C143.621 38.5559 143.492 38.4223 143.492 38.2487V37.9416H143.061H142.985L142.566 38.4446C142.5 38.5247 142.415 38.5559 142.335 38.5559C142.17 38.5559 142.037 38.4179 142.037 38.2532C142.037 38.1686 142.086 38.0974 142.144 38.0351L142.411 37.7368C142.237 37.59 142.135 37.3808 142.135 37.1226C142.135 36.6285 142.504 36.2991 143.061 36.2991H143.786ZM143.492 37.4342V36.8066H143.105C142.883 36.8066 142.745 36.9267 142.745 37.1137C142.745 37.3051 142.887 37.4342 143.105 37.4342H143.492Z" fill="white"/>
<path d="M100.903 17.1128C103.548 17.1128 105.205 18.8842 105.205 21.6909V27.4424C105.205 28.3626 104.538 29.0298 103.663 29.0298C102.766 29.0298 102.099 28.3396 102.099 27.4424V22.1281C102.099 20.7707 101.317 19.9195 100.074 19.9195C98.8322 19.9195 97.981 20.7937 97.981 22.059V27.4424C97.981 28.3626 97.3138 29.0298 96.4396 29.0298C95.5423 29.0298 94.8752 28.3396 94.8752 27.4424V22.1281C94.8752 20.7707 94.07 19.9195 92.8507 19.9195C91.5854 19.9195 90.7571 20.7937 90.7571 22.1281V27.4424C90.7571 28.3626 90.09 29.0298 89.2158 29.0298C88.3185 29.0298 87.6514 28.3396 87.6514 27.4424V18.6772C87.6514 17.78 88.3185 17.1128 89.1928 17.1128C89.9059 17.1128 90.4581 17.5729 90.6421 18.2631C91.4243 17.5269 92.4826 17.1128 93.7249 17.1128C95.1973 17.1128 96.3706 17.6879 97.1067 18.7462C98.004 17.7339 99.3843 17.1128 100.903 17.1128Z" fill="white"/>
<path d="M79.4596 29.0298C76.3538 29.0298 74.1913 26.8672 74.1913 23.7385V18.6772C74.1913 17.78 74.8585 17.1128 75.7557 17.1128C76.6299 17.1128 77.2971 17.78 77.2971 18.6772V23.9915C77.2971 25.2568 78.1943 26.1771 79.4596 26.1771C80.7019 26.1771 81.5761 25.2568 81.5761 23.9915V18.6772C81.5761 17.78 82.2203 17.1128 83.1405 17.1128C84.0148 17.1128 84.6819 17.78 84.6819 18.6772V23.7385C84.6819 26.8672 82.5194 29.0298 79.4596 29.0298Z" fill="white"/>
<path d="M71.6606 26.4303C71.9367 26.8444 72.0977 27.2355 72.0977 27.6036C72.0977 28.3858 71.4305 29.03 70.6483 29.03C70.0962 29.03 69.6361 28.7539 69.268 28.2247L65.8631 23.3935H65.8401H63.2175V27.4426C63.2175 28.3398 62.5503 29.03 61.6761 29.03C60.7789 29.03 60.1117 28.3398 60.1117 27.4426V15.1345C60.1117 14.2372 60.7789 13.5701 61.6991 13.5701H65.8401C69.0839 13.5701 71.2925 15.5486 71.2925 18.4473C71.2925 20.2878 70.3953 21.7831 68.9229 22.6343L71.6606 26.4303ZM63.2175 16.3078V20.6558H65.8171C67.2435 20.6558 68.1177 19.8046 68.1177 18.4703C68.1177 17.159 67.2205 16.3078 65.8171 16.3078H63.2175Z" fill="white"/>
<path d="M127.859 29.0298C124.753 29.0298 122.591 26.8672 122.591 23.7385V18.6772C122.591 17.78 123.258 17.1128 124.155 17.1128C125.03 17.1128 125.697 17.78 125.697 18.6772V23.9915C125.697 25.2568 126.594 26.1771 127.859 26.1771C129.102 26.1771 129.976 25.2568 129.976 23.9915V18.6772C129.976 17.78 130.62 17.1128 131.54 17.1128C132.414 17.1128 133.082 17.78 133.082 18.6772V23.7385C133.082 26.8672 130.919 29.0298 127.859 29.0298Z" fill="white"/>
<path d="M117.688 20.5408C119.39 21.139 120.403 22.4733 120.403 24.2908C120.403 26.9134 118.332 28.7539 115.387 28.7539H110.211C109.291 28.7539 108.624 28.0867 108.624 27.1665V15.1575C108.624 14.2372 109.291 13.5701 110.211 13.5701H114.007C116.837 13.5701 118.815 15.2955 118.815 17.8031C118.815 18.9304 118.424 19.8506 117.688 20.5408ZM113.777 16.2387H111.638V19.7126H113.777C114.996 19.7126 115.756 19.0454 115.756 17.9642C115.756 16.8829 114.996 16.2387 113.777 16.2387ZM115.157 26.0852C116.515 26.0852 117.32 25.395 117.32 24.1757C117.32 22.9794 116.515 22.2663 115.157 22.2663H111.638V26.0852H115.157Z" fill="white"/>
<path fill-rule="evenodd" clip-rule="evenodd" d="M135.545 27.3964C136.557 28.3857 138.03 29.0298 139.732 29.0298C142.217 29.0298 144.172 27.7415 144.172 25.3949C144.172 23.6235 143.022 22.7493 140.974 21.9211L139.87 21.4609C139.752 21.4152 139.644 21.3712 139.545 21.3283L139.259 22.107L137.33 19.4469L140.479 18.509L140.007 19.6307C140.021 19.6363 140.035 19.6419 140.049 19.6473C140.75 19.682 141.406 19.9479 141.964 20.3337C142.24 20.5177 142.516 20.6557 142.792 20.6557C143.482 20.6557 144.057 20.0806 144.057 19.3674C144.057 18.9533 143.873 18.5852 143.505 18.3091C142.585 17.527 141.273 17.0898 139.916 17.0898C137.501 17.0898 135.729 18.3322 135.729 20.5177C135.729 22.3122 136.902 23.2094 138.835 23.9916L139.811 24.3968L140.266 24.5533L140.575 23.3378L142.68 25.8618L139.601 27.0099L139.716 26.4756C138.754 26.4579 137.947 26.0271 137.293 25.4639C136.971 25.2109 136.695 25.1189 136.396 25.1189C135.683 25.1189 135.108 25.717 135.108 26.4302C135.108 26.7983 135.246 27.1434 135.545 27.3964Z" fill="white"/>
</svg>
