<svg width="145" height="49" viewBox="0 0 145 49" fill="none" xmlns="http://www.w3.org/2000/svg">
<rect x="0.371582" y="0.487793" width="48.0121" height="48.0121" rx="14.3587" fill="#00CEBF"/>
<path fill-rule="evenodd" clip-rule="evenodd" d="M30.1835 9.48975H24.3775H18.5716C17.4771 9.57107 15.1543 10.49 14.6191 13.5151C14.3759 14.3894 13.7192 17.5649 13.0382 23.2737L11.822 22.9687V20.8341C11.7612 20.6714 11.518 20.3583 11.0315 20.4071C10.4235 20.4681 9.87619 20.5901 9.87619 21.139V23.5787C9.85593 23.7616 9.96132 24.152 10.5451 24.2496C11.2748 24.3715 11.6396 24.3105 11.822 23.9446L12.9774 24.5545C12.8963 25.7133 12.7341 28.214 12.7341 28.9459C12.7341 29.6777 12.9368 32.0564 13.0382 33.1542V38.8874C13.0584 39.0907 13.2084 39.4973 13.6462 39.4973H16.1393C16.3217 39.477 16.6866 39.2899 16.6866 38.7044V37.3016C17.3149 37.4236 18.9608 37.6676 20.5174 37.6676H24.3775H28.2377C29.7943 37.6676 31.4402 37.4236 32.0685 37.3016V38.7044C32.0685 39.2899 32.4333 39.477 32.6158 39.4973H35.1089C35.5467 39.4973 35.6967 39.0907 35.7169 38.8874V33.1542C35.8183 32.0564 36.021 29.6777 36.021 28.9459C36.021 28.214 35.8588 25.7133 35.7777 24.5545L36.9331 23.9446C37.1155 24.3105 37.4803 24.3715 38.21 24.2496C38.7938 24.152 38.8992 23.7616 38.8789 23.5787V21.139C38.8789 20.5901 38.3316 20.4681 37.7236 20.4071C37.2371 20.3583 36.9939 20.6714 36.9331 20.8341V22.9687L35.7169 23.2737C35.0359 17.5649 34.3792 14.3894 34.1359 13.5151C33.6008 10.49 31.278 9.57107 30.1835 9.48975ZM24.3775 15.7108C26.2423 15.6905 30.2686 15.6742 31.582 15.7718C33.2238 15.8938 33.4063 16.1987 33.6495 17.3576C33.8471 18.2989 34.165 21.1316 34.31 22.4234C34.3435 22.7219 34.3678 22.9381 34.3792 23.0297L34.3827 23.058C34.4481 23.576 34.6415 25.1068 32.4333 25.2864C32.2038 25.3051 31.9872 25.3231 31.7782 25.3405C29.9394 25.4936 28.6911 25.5976 24.3775 25.6523C20.064 25.5976 18.8157 25.4936 16.9769 25.3405C16.7679 25.3231 16.5513 25.3051 16.3217 25.2864C14.1136 25.1068 14.3069 23.576 14.3724 23.058L14.3759 23.0297C14.3873 22.9381 14.4116 22.7219 14.4451 22.4234C14.5901 21.1316 14.908 18.2989 15.1056 17.3576C15.3488 16.1987 15.5313 15.8938 17.173 15.7718C18.4865 15.6742 22.5128 15.6905 24.3775 15.7108ZM30.1835 32.6053C30.0862 32.4101 30.1835 32.0767 30.2443 31.9344C30.6507 30.9152 31.1845 30.7476 31.9521 30.5066C32.1032 30.4591 32.2633 30.4088 32.4333 30.3486C33.0822 30.1189 33.3717 29.9373 33.6327 29.7735C33.7875 29.6764 33.9322 29.5856 34.1359 29.4948C34.6832 29.2508 34.744 29.5558 34.744 29.7387C34.744 29.7527 34.7444 29.7746 34.7448 29.8033C34.7505 30.1492 34.7722 31.4838 34.3792 31.9344C33.9907 32.3797 32.64 32.5202 31.9909 32.5877C31.9288 32.5942 31.8731 32.6 31.8253 32.6053C31.7307 32.6159 31.6233 32.63 31.5099 32.645C30.9671 32.7168 30.2841 32.8071 30.1835 32.6053ZM24.3775 30.7756H27.812C28.0755 30.7959 28.5782 30.983 28.4809 31.5685C28.3593 32.3004 27.812 33.1542 26.5959 33.2152C25.6229 33.264 24.7221 33.3169 24.3775 33.3372C24.033 33.3169 23.1321 33.264 22.1592 33.2152C20.9431 33.1542 20.3958 32.3004 20.2742 31.5685C20.1769 30.983 20.6796 30.7959 20.9431 30.7756H24.3775ZM18.5716 32.6053C18.6689 32.4101 18.5716 32.0767 18.5108 31.9344C18.1044 30.9152 17.5705 30.7476 16.803 30.5066C16.6519 30.4591 16.4918 30.4088 16.3217 30.3486C15.6729 30.1189 15.3834 29.9373 15.1224 29.7735C14.9676 29.6764 14.8229 29.5856 14.6191 29.4948C14.0719 29.2508 14.0111 29.5558 14.0111 29.7387C14.0111 29.7527 14.0107 29.7746 14.0103 29.8033C14.0046 30.1492 13.9829 31.4838 14.3759 31.9344C14.7644 32.3797 16.1151 32.5202 16.7642 32.5877C16.8263 32.5942 16.882 32.6 16.9298 32.6053C17.0244 32.6159 17.1318 32.63 17.2452 32.645C17.788 32.7168 18.471 32.8071 18.5716 32.6053Z" fill="white"/>
<path d="M62.8021 35.0113C62.9712 35.0113 63.0959 35.1448 63.0959 35.3229V37.7487C63.0959 37.9223 62.9668 38.0559 62.7976 38.0559C62.624 38.0559 62.495 37.9223 62.495 37.7487V36.2977L61.943 37.1656C61.8584 37.2992 61.7783 37.357 61.6581 37.357C61.5424 37.357 61.4578 37.2992 61.3733 37.1656L60.8213 36.2888V37.7487C60.8213 37.9223 60.6922 38.0559 60.5231 38.0559C60.3495 38.0559 60.2204 37.9223 60.2204 37.7487V35.3229C60.2204 35.1448 60.3451 35.0113 60.5142 35.0113C60.6433 35.0113 60.7279 35.0736 60.8302 35.2427L61.6581 36.5558L62.486 35.2427C62.5929 35.0736 62.673 35.0113 62.8021 35.0113ZM64.0479 34.6329C64.2482 34.6329 64.4218 34.7932 64.4218 34.9979C64.4218 35.1982 64.2482 35.3585 64.0479 35.3585C63.8387 35.3585 63.6696 35.1982 63.6696 34.9979C63.6696 34.7932 63.8387 34.6329 64.0479 34.6329ZM64.0435 38.0559C63.8743 38.0559 63.7453 37.9223 63.7453 37.7487V36.0529C63.7453 35.8793 63.8743 35.7502 64.0479 35.7502C64.2171 35.7502 64.3462 35.8793 64.3462 36.0529V37.7487C64.3462 37.9223 64.2171 38.0559 64.0435 38.0559ZM65.3936 35.8526L66.0479 36.5959C66.1191 36.6805 66.1503 36.7428 66.1503 36.814C66.1503 36.8763 66.128 36.9342 66.0613 37.0276L65.3491 37.949C65.3001 38.0247 65.2289 38.0559 65.1354 38.0559C64.9796 38.0559 64.8595 37.9357 64.8595 37.7799C64.8595 37.722 64.8773 37.6642 64.9262 37.5974L65.5271 36.8095L64.993 36.2264C64.9307 36.1597 64.904 36.0929 64.904 36.0172C64.904 35.8659 65.0197 35.7546 65.1755 35.7502C65.2601 35.7457 65.3313 35.7769 65.3936 35.8526ZM68.1666 37.5974C68.2112 37.6686 68.2334 37.722 68.2334 37.7799C68.2334 37.9357 68.1132 38.0559 67.9574 38.0559C67.864 38.0559 67.7972 38.0202 67.7438 37.949L67.0316 37.0276C66.9648 36.9342 66.9426 36.8763 66.9426 36.814C66.9426 36.7428 66.9737 36.6805 67.045 36.5959L67.6993 35.8526C67.7616 35.7769 67.8328 35.7457 67.9174 35.7502C68.0732 35.7546 68.1889 35.8659 68.1889 36.0172C68.1889 36.0929 68.1577 36.1597 68.0999 36.2264L67.5613 36.8095L68.1666 37.5974ZM66.5509 35.7502C66.72 35.7502 66.8491 35.8793 66.8491 36.0529V37.7487C66.8491 37.9268 66.72 38.0559 66.5509 38.0559C66.3773 38.0559 66.2482 37.9223 66.2482 37.7487V36.0529C66.2482 35.8793 66.3773 35.7502 66.5509 35.7502ZM70.48 35.7502C70.6492 35.7502 70.7782 35.8793 70.7782 36.0529V37.7487C70.7782 37.9223 70.6492 38.0514 70.48 38.0514C70.3109 38.0514 70.1818 37.9223 70.1818 37.7487V37.1167H69.3494V37.7487C69.3494 37.9223 69.2203 38.0514 69.0512 38.0514C68.8776 38.0514 68.7485 37.9223 68.7485 37.7487V36.0529C68.7485 35.8793 68.8776 35.7502 69.0512 35.7502C69.2203 35.7502 69.3494 35.8793 69.3494 36.0529V36.6048H70.1818V36.0529C70.1818 35.8793 70.3064 35.7502 70.48 35.7502ZM72.2899 35.7502C72.8952 35.7502 73.2424 36.0929 73.2424 36.6938V37.7532C73.2424 37.9268 73.1178 38.0514 72.9531 38.0514C72.8062 38.0514 72.6905 37.9535 72.6638 37.8199C72.5035 37.9713 72.281 38.0559 72.0184 38.0559C71.5643 38.0559 71.2572 37.7888 71.2572 37.3971C71.2572 37.0009 71.5732 36.7561 72.0896 36.7561H72.6415V36.6582C72.6415 36.4134 72.4946 36.271 72.2276 36.271C72.0718 36.271 71.9338 36.3244 71.8047 36.4356C71.7335 36.4891 71.6845 36.5069 71.6267 36.5069C71.4798 36.5069 71.3685 36.3956 71.3685 36.2621C71.3685 36.1775 71.413 36.0974 71.4931 36.0217C71.6801 35.8481 71.9694 35.7502 72.2899 35.7502ZM72.1786 37.6152C72.4412 37.6152 72.6415 37.4282 72.6415 37.179V37.1523H72.1697C71.9694 37.1523 71.8626 37.2279 71.8626 37.3748C71.8626 37.5217 71.9828 37.6152 72.1786 37.6152ZM75.1026 35.7502C75.7213 35.7502 76.1709 36.2309 76.1709 36.8986C76.1709 37.5662 75.7213 38.0559 75.1026 38.0559C74.8267 38.0559 74.5952 37.9579 74.4439 37.7888V38.5544C74.4439 38.728 74.3148 38.8571 74.1456 38.8571C73.9721 38.8571 73.843 38.728 73.843 38.5544V36.0439C73.843 35.8748 73.9721 35.7457 74.1412 35.7457C74.3014 35.7457 74.4216 35.8659 74.4305 36.0306C74.5819 35.8526 74.8178 35.7502 75.1026 35.7502ZM74.9914 37.5084C75.3207 37.5084 75.5611 37.2547 75.5611 36.903C75.5611 36.5469 75.3252 36.2932 74.9914 36.2932C74.6575 36.2932 74.435 36.538 74.435 36.8986C74.435 37.2591 74.662 37.5084 74.9914 37.5084ZM77.6967 35.7502C78.3555 35.7502 78.8807 36.2576 78.8807 36.8986C78.8807 37.5395 78.3555 38.0514 77.6922 38.0514C77.0335 38.0514 76.5172 37.544 76.5172 36.8986C76.5172 36.2532 77.0335 35.7502 77.6967 35.7502ZM77.6967 36.2977C77.3673 36.2977 77.127 36.5514 77.127 36.903C77.127 37.2502 77.3673 37.4995 77.6967 37.4995C78.0216 37.4995 78.2664 37.2458 78.2664 36.903C78.2664 36.5558 78.0216 36.2977 77.6967 36.2977ZM81.4887 37.495C81.6623 37.495 81.7913 37.6241 81.7913 37.7977V38.3763C81.7913 38.5544 81.6623 38.6835 81.4931 38.6835C81.324 38.6835 81.1949 38.5499 81.1949 38.3763V38.0024H79.6815V38.3763C79.6815 38.5544 79.5524 38.6835 79.3833 38.6835C79.2097 38.6835 79.0806 38.5499 79.0806 38.3763V37.7977C79.0806 37.6241 79.2097 37.495 79.3877 37.495H79.41C79.6726 37.1923 79.775 36.7917 79.775 36.0929V36.0885C79.775 35.9193 79.9085 35.7991 80.0777 35.7991H81.097C81.2706 35.7991 81.3996 35.9327 81.3996 36.1063V37.495H81.4887ZM80.3714 36.3066C80.367 36.8674 80.2646 37.2458 80.0421 37.495H80.8032V36.3066H80.3714ZM83.9681 35.7502C84.1373 35.7502 84.2663 35.8793 84.2663 36.0529V37.7487C84.2663 37.9223 84.1373 38.0514 83.9681 38.0514C83.799 38.0514 83.6699 37.9223 83.6699 37.7487V37.1167H82.8375V37.7487C82.8375 37.9223 82.7084 38.0514 82.5393 38.0514C82.3657 38.0514 82.2366 37.9223 82.2366 37.7487V36.0529C82.2366 35.8793 82.3657 35.7502 82.5393 35.7502C82.7084 35.7502 82.8375 35.8793 82.8375 36.0529V36.6048H83.6699V36.0529C83.6699 35.8793 83.7945 35.7502 83.9681 35.7502ZM85.2038 34.6329C85.4041 34.6329 85.5777 34.7932 85.5777 34.9979C85.5777 35.1982 85.4041 35.3585 85.2038 35.3585C84.9946 35.3585 84.8254 35.1982 84.8254 34.9979C84.8254 34.7932 84.9946 34.6329 85.2038 34.6329ZM85.1993 38.0559C85.0302 38.0559 84.9011 37.9223 84.9011 37.7487V36.0529C84.9011 35.8793 85.0302 35.7502 85.2038 35.7502C85.3729 35.7502 85.502 35.8793 85.502 36.0529V37.7487C85.502 37.9223 85.3729 38.0559 85.1993 38.0559ZM87.6902 38.0559C87.521 38.0559 87.3919 37.9268 87.3919 37.7532V36.1018C87.3919 35.9282 87.521 35.7991 87.6946 35.7991H89.0878C89.2614 35.7991 89.3905 35.9282 89.3905 36.1018V37.7532C89.3905 37.9268 89.2614 38.0559 89.0878 38.0559C88.9187 38.0559 88.7896 37.9268 88.7896 37.7532V36.3066H87.9928V37.7532C87.9928 37.9268 87.8637 38.0559 87.6902 38.0559ZM90.9029 35.7502C91.5082 35.7502 91.8554 36.0929 91.8554 36.6938V37.7532C91.8554 37.9268 91.7308 38.0514 91.5661 38.0514C91.4192 38.0514 91.3035 37.9535 91.2767 37.8199C91.1165 37.9713 90.894 38.0559 90.6313 38.0559C90.1773 38.0559 89.8702 37.7888 89.8702 37.3971C89.8702 37.0009 90.1862 36.7561 90.7026 36.7561H91.2545V36.6582C91.2545 36.4134 91.1076 36.271 90.8405 36.271C90.6847 36.271 90.5468 36.3244 90.4177 36.4356C90.3465 36.4891 90.2975 36.5069 90.2396 36.5069C90.0927 36.5069 89.9815 36.3956 89.9815 36.2621C89.9815 36.1775 90.026 36.0974 90.1061 36.0217C90.293 35.8481 90.5824 35.7502 90.9029 35.7502ZM90.7916 37.6152C91.0542 37.6152 91.2545 37.4282 91.2545 37.179V37.1523H90.7827C90.5824 37.1523 90.4755 37.2279 90.4755 37.3748C90.4755 37.5217 90.5957 37.6152 90.7916 37.6152ZM93.4886 38.0559C92.8254 38.0559 92.3091 37.544 92.3091 36.8986C92.3091 36.2532 92.8254 35.7502 93.4886 35.7502C93.8625 35.7502 94.2097 35.9282 94.3788 36.1864C94.4189 36.2487 94.4322 36.2977 94.4322 36.3466C94.4322 36.4935 94.3121 36.6137 94.1652 36.6137C94.0806 36.6137 94.0138 36.587 93.9604 36.5202C93.8491 36.3867 93.6934 36.2977 93.4975 36.2977C93.1592 36.2977 92.9189 36.5469 92.9189 36.8986C92.9189 37.2547 93.1592 37.5039 93.4975 37.5039C93.6889 37.5039 93.8402 37.4149 93.9604 37.2814C94.0227 37.2101 94.0851 37.1879 94.1652 37.1879C94.3121 37.1879 94.4322 37.3081 94.4322 37.455C94.4322 37.5084 94.4189 37.5529 94.3833 37.6063C94.2008 37.8867 93.8803 38.0559 93.4886 38.0559ZM95.7843 35.7502C96.3897 35.7502 96.7368 36.0929 96.7368 36.6938V37.7532C96.7368 37.9268 96.6122 38.0514 96.4475 38.0514C96.3006 38.0514 96.1849 37.9535 96.1582 37.8199C95.998 37.9713 95.7754 38.0559 95.5128 38.0559C95.0588 38.0559 94.7516 37.7888 94.7516 37.3971C94.7516 37.0009 95.0677 36.7561 95.584 36.7561H96.1359V36.6582C96.1359 36.4134 95.9891 36.271 95.722 36.271C95.5662 36.271 95.4282 36.3244 95.2991 36.4356C95.2279 36.4891 95.179 36.5069 95.1211 36.5069C94.9742 36.5069 94.8629 36.3956 94.8629 36.2621C94.8629 36.1775 94.9074 36.0974 94.9876 36.0217C95.1745 35.8481 95.4638 35.7502 95.7843 35.7502ZM95.673 37.6152C95.9356 37.6152 96.1359 37.4282 96.1359 37.179V37.1523H95.6641C95.4638 37.1523 95.357 37.2279 95.357 37.3748C95.357 37.5217 95.4772 37.6152 95.673 37.6152ZM97.7424 35.8526L98.3968 36.5959C98.468 36.6805 98.4991 36.7428 98.4991 36.814C98.4991 36.8763 98.4769 36.9342 98.4101 37.0276L97.6979 37.949C97.649 38.0247 97.5778 38.0559 97.4843 38.0559C97.3285 38.0559 97.2083 37.9357 97.2083 37.7799C97.2083 37.722 97.2261 37.6642 97.2751 37.5974L97.876 36.8095L97.3418 36.2264C97.2795 36.1597 97.2528 36.0929 97.2528 36.0172C97.2528 35.8659 97.3686 35.7546 97.5243 35.7502C97.6089 35.7457 97.6801 35.7769 97.7424 35.8526ZM100.515 37.5974C100.56 37.6686 100.582 37.722 100.582 37.7799C100.582 37.9357 100.462 38.0559 100.306 38.0559C100.213 38.0559 100.146 38.0202 100.093 37.949L99.3805 37.0276C99.3137 36.9342 99.2914 36.8763 99.2914 36.814C99.2914 36.7428 99.3226 36.6805 99.3938 36.5959L100.048 35.8526C100.11 35.7769 100.182 35.7457 100.266 35.7502C100.422 35.7546 100.538 35.8659 100.538 36.0172C100.538 36.0929 100.507 36.1597 100.449 36.2264L99.9101 36.8095L100.515 37.5974ZM98.8997 35.7502C99.0689 35.7502 99.198 35.8793 99.198 36.0529V37.7487C99.198 37.9268 99.0689 38.0559 98.8997 38.0559C98.7261 38.0559 98.5971 37.9223 98.5971 37.7487V36.0529C98.5971 35.8793 98.7261 35.7502 98.8997 35.7502ZM102.869 35.7502C103.038 35.7502 103.167 35.8793 103.167 36.0529V37.7487C103.167 37.9223 103.038 38.0559 102.869 38.0559C102.7 38.0559 102.571 37.9223 102.571 37.7487V36.7828L101.663 37.909C101.578 38.0113 101.498 38.0559 101.396 38.0559C101.226 38.0559 101.097 37.9223 101.097 37.7487V36.0529C101.097 35.8793 101.226 35.7502 101.4 35.7502C101.569 35.7502 101.698 35.8793 101.698 36.0529V37.0321L102.602 35.8971C102.686 35.7947 102.767 35.7502 102.869 35.7502ZM105.069 35.7502C105.688 35.7502 106.138 36.2309 106.138 36.8986C106.138 37.5662 105.688 38.0559 105.069 38.0559C104.793 38.0559 104.562 37.9579 104.411 37.7888V38.5544C104.411 38.728 104.282 38.8571 104.112 38.8571C103.939 38.8571 103.81 38.728 103.81 38.5544V36.0439C103.81 35.8748 103.939 35.7457 104.108 35.7457C104.268 35.7457 104.388 35.8659 104.397 36.0306C104.549 35.8526 104.785 35.7502 105.069 35.7502ZM104.958 37.5084C105.288 37.5084 105.528 37.2547 105.528 36.903C105.528 36.5469 105.292 36.2932 104.958 36.2932C104.624 36.2932 104.402 36.538 104.402 36.8986C104.402 37.2591 104.629 37.5084 104.958 37.5084ZM107.663 38.0559C107 38.0559 106.484 37.544 106.484 36.8986C106.484 36.2532 107 35.7502 107.663 35.7502C108.037 35.7502 108.385 35.9282 108.554 36.1864C108.594 36.2487 108.607 36.2977 108.607 36.3466C108.607 36.4935 108.487 36.6137 108.34 36.6137C108.255 36.6137 108.189 36.587 108.135 36.5202C108.024 36.3867 107.868 36.2977 107.672 36.2977C107.334 36.2977 107.094 36.5469 107.094 36.8986C107.094 37.2547 107.334 37.5039 107.672 37.5039C107.864 37.5039 108.015 37.4149 108.135 37.2814C108.198 37.2101 108.26 37.1879 108.34 37.1879C108.487 37.1879 108.607 37.3081 108.607 37.455C108.607 37.5084 108.594 37.5529 108.558 37.6063C108.376 37.8867 108.055 38.0559 107.663 38.0559ZM109.389 35.7502C109.559 35.7502 109.688 35.8793 109.688 36.0529V36.36H110.119C110.649 36.36 111.045 36.6627 111.045 37.179C111.045 37.6998 110.649 38.0024 110.119 38.0024H109.394C109.216 38.0024 109.087 37.8734 109.087 37.6953V36.0529C109.087 35.8793 109.211 35.7502 109.389 35.7502ZM110.075 36.8719H109.688V37.495H110.079C110.284 37.495 110.435 37.3882 110.435 37.1879C110.435 36.9876 110.284 36.8719 110.075 36.8719ZM113.501 37.5929C113.55 37.6553 113.572 37.7131 113.572 37.7799C113.572 37.9312 113.452 38.0559 113.296 38.0559C113.207 38.0559 113.136 38.0247 113.087 37.9579L112.335 37.0276C112.273 36.9475 112.246 36.8808 112.246 36.814C112.246 36.7428 112.277 36.676 112.353 36.5914L113.052 35.8392C113.105 35.7813 113.176 35.7457 113.256 35.7502C113.412 35.7546 113.532 35.8704 113.532 36.0217C113.532 36.0929 113.501 36.1686 113.443 36.2264L112.882 36.8184L113.501 37.5929ZM111.85 35.7502C112.023 35.7502 112.148 35.8793 112.148 36.0529V37.7487C112.148 37.9223 112.019 38.0559 111.85 38.0559C111.676 38.0559 111.547 37.9223 111.547 37.7487V36.0529C111.547 35.8793 111.676 35.7502 111.85 35.7502ZM114.358 34.6329C114.558 34.6329 114.732 34.7932 114.732 34.9979C114.732 35.1982 114.558 35.3585 114.358 35.3585C114.149 35.3585 113.979 35.1982 113.979 34.9979C113.979 34.7932 114.149 34.6329 114.358 34.6329ZM114.353 38.0559C114.184 38.0559 114.055 37.9223 114.055 37.7487V36.0529C114.055 35.8793 114.184 35.7502 114.358 35.7502C114.527 35.7502 114.656 35.8793 114.656 36.0529V37.7487C114.656 37.9223 114.527 38.0559 114.353 38.0559ZM116.844 38.0559C116.675 38.0559 116.546 37.9268 116.546 37.7532V36.1018C116.546 35.9282 116.675 35.7991 116.849 35.7991H118.242C118.415 35.7991 118.544 35.9282 118.544 36.1018V37.7532C118.544 37.9268 118.415 38.0559 118.242 38.0559C118.073 38.0559 117.944 37.9268 117.944 37.7532V36.3066H117.147V37.7532C117.147 37.9268 117.018 38.0559 116.844 38.0559ZM120.181 35.7502C120.782 35.7502 121.227 36.1864 121.227 36.7828V36.7962C121.227 36.9831 121.094 37.1033 120.898 37.1033H119.643C119.714 37.3793 119.937 37.5395 120.262 37.5395C120.422 37.5395 120.586 37.495 120.72 37.4104C120.765 37.3837 120.805 37.3704 120.849 37.3704C120.987 37.3704 121.094 37.4728 121.094 37.6107C121.094 37.7087 121.049 37.7799 120.943 37.8511C120.742 37.9846 120.502 38.0559 120.244 38.0559C119.549 38.0559 119.037 37.5618 119.037 36.903C119.037 36.2487 119.532 35.7502 120.181 35.7502ZM120.168 36.2353C119.905 36.2353 119.71 36.4089 119.643 36.6805H120.644C120.635 36.4178 120.449 36.2353 120.168 36.2353ZM122.978 35.7502C123.597 35.7502 124.046 36.2309 124.046 36.8986C124.046 37.5662 123.597 38.0559 122.978 38.0559C122.702 38.0559 122.471 37.9579 122.319 37.7888V38.5544C122.319 38.728 122.19 38.8571 122.021 38.8571C121.848 38.8571 121.719 38.728 121.719 38.5544V36.0439C121.719 35.8748 121.848 35.7457 122.017 35.7457C122.177 35.7457 122.297 35.8659 122.306 36.0306C122.457 35.8526 122.693 35.7502 122.978 35.7502ZM122.867 37.5084C123.196 37.5084 123.437 37.2547 123.437 36.903C123.437 36.5469 123.201 36.2932 122.867 36.2932C122.533 36.2932 122.311 36.538 122.311 36.8986C122.311 37.2591 122.538 37.5084 122.867 37.5084ZM125.537 35.7502C126.138 35.7502 126.583 36.1864 126.583 36.7828V36.7962C126.583 36.9831 126.449 37.1033 126.253 37.1033H124.998C125.069 37.3793 125.292 37.5395 125.617 37.5395C125.777 37.5395 125.942 37.495 126.075 37.4104C126.12 37.3837 126.16 37.3704 126.204 37.3704C126.342 37.3704 126.449 37.4728 126.449 37.6107C126.449 37.7087 126.405 37.7799 126.298 37.8511C126.098 37.9846 125.857 38.0559 125.599 38.0559C124.905 38.0559 124.393 37.5618 124.393 36.903C124.393 36.2487 124.887 35.7502 125.537 35.7502ZM125.523 36.2353C125.261 36.2353 125.065 36.4089 124.998 36.6805H126C125.991 36.4178 125.804 36.2353 125.523 36.2353ZM128.721 36.8273C128.934 36.9297 129.05 37.1078 129.05 37.3348C129.05 37.7265 128.725 38.0024 128.267 38.0024H127.381C127.203 38.0024 127.074 37.8734 127.074 37.6953V36.1063C127.074 35.9327 127.203 35.7991 127.381 35.7991H128.115C128.587 35.7991 128.899 36.0439 128.899 36.4134C128.899 36.5781 128.836 36.7205 128.721 36.8273ZM127.648 36.2799V36.6538H128.102C128.253 36.6538 128.342 36.587 128.342 36.4624C128.342 36.3422 128.262 36.2799 128.102 36.2799H127.648ZM128.218 37.5173C128.391 37.5173 128.498 37.4282 128.498 37.2903C128.498 37.1567 128.391 37.0766 128.218 37.0766H127.648V37.5173H128.218ZM130.54 35.7502C131.141 35.7502 131.586 36.1864 131.586 36.7828V36.7962C131.586 36.9831 131.452 37.1033 131.256 37.1033H130.001C130.072 37.3793 130.295 37.5395 130.62 37.5395C130.78 37.5395 130.945 37.495 131.078 37.4104C131.123 37.3837 131.163 37.3704 131.208 37.3704C131.345 37.3704 131.452 37.4728 131.452 37.6107C131.452 37.7087 131.408 37.7799 131.301 37.8511C131.101 37.9846 130.86 38.0559 130.602 38.0559C129.908 38.0559 129.396 37.5618 129.396 36.903C129.396 36.2487 129.89 35.7502 130.54 35.7502ZM130.526 36.2353C130.264 36.2353 130.068 36.4089 130.001 36.6805H131.003C130.994 36.4178 130.807 36.2353 130.526 36.2353ZM133.462 36.8674C133.658 36.9831 133.774 37.1745 133.774 37.3926C133.774 37.7932 133.387 38.0559 132.804 38.0559C132.496 38.0559 132.216 37.9668 132.042 37.8199C131.953 37.7532 131.913 37.682 131.913 37.5974C131.913 37.455 132.025 37.3437 132.171 37.3437C132.225 37.3437 132.269 37.357 132.327 37.3971C132.443 37.4906 132.612 37.5395 132.804 37.5395C133.053 37.5395 133.186 37.455 133.186 37.3081C133.186 37.1701 133.071 37.0944 132.866 37.0944H132.652C132.523 37.0944 132.425 36.9965 132.425 36.8719C132.425 36.7428 132.523 36.6493 132.652 36.6493H132.844C133.004 36.6493 133.097 36.5781 133.097 36.4579C133.097 36.3288 132.99 36.2665 132.772 36.2665C132.594 36.2665 132.461 36.3021 132.336 36.3867C132.278 36.4267 132.234 36.4446 132.176 36.4446C132.034 36.4446 131.918 36.3288 131.918 36.1864C131.918 36.1018 131.958 36.0306 132.056 35.9594C132.22 35.8303 132.483 35.7502 132.781 35.7502C133.333 35.7502 133.685 35.9994 133.685 36.3956C133.685 36.587 133.605 36.7472 133.462 36.8674ZM135.291 35.7502C135.892 35.7502 136.337 36.1864 136.337 36.7828V36.7962C136.337 36.9831 136.203 37.1033 136.008 37.1033H134.752C134.824 37.3793 135.046 37.5395 135.371 37.5395C135.531 37.5395 135.696 37.495 135.829 37.4104C135.874 37.3837 135.914 37.3704 135.959 37.3704C136.097 37.3704 136.203 37.4728 136.203 37.6107C136.203 37.7087 136.159 37.7799 136.052 37.8511C135.852 37.9846 135.611 38.0559 135.353 38.0559C134.659 38.0559 134.147 37.5618 134.147 36.903C134.147 36.2487 134.641 35.7502 135.291 35.7502ZM135.278 36.2353C135.015 36.2353 134.819 36.4089 134.752 36.6805H135.754C135.745 36.4178 135.558 36.2353 135.278 36.2353ZM138.56 35.7502C138.729 35.7502 138.858 35.8793 138.858 36.0529V37.7487C138.858 37.9223 138.729 38.0514 138.56 38.0514C138.39 38.0514 138.261 37.9223 138.261 37.7487V37.1167H137.429V37.7487C137.429 37.9223 137.3 38.0514 137.131 38.0514C136.957 38.0514 136.828 37.9223 136.828 37.7487V36.0529C136.828 35.8793 136.957 35.7502 137.131 35.7502C137.3 35.7502 137.429 35.8793 137.429 36.0529V36.6048H138.261V36.0529C138.261 35.8793 138.386 35.7502 138.56 35.7502ZM141.228 35.7502C141.398 35.7502 141.527 35.8793 141.527 36.0529V37.7487C141.527 37.9223 141.398 38.0514 141.228 38.0514C141.059 38.0514 140.93 37.9223 140.93 37.7487V37.1167H140.098V37.7487C140.098 37.9223 139.969 38.0514 139.8 38.0514C139.626 38.0514 139.497 37.9223 139.497 37.7487V36.0529C139.497 35.8793 139.626 35.7502 139.8 35.7502C139.969 35.7502 140.098 35.8793 140.098 36.0529V36.6048H140.93V36.0529C140.93 35.8793 141.055 35.7502 141.228 35.7502ZM143.786 35.7991C143.964 35.7991 144.093 35.9327 144.093 36.1063V37.7487C144.093 37.9223 143.964 38.0559 143.795 38.0559C143.621 38.0559 143.492 37.9223 143.492 37.7487V37.4416H143.061H142.985L142.566 37.9446C142.5 38.0247 142.415 38.0559 142.335 38.0559C142.17 38.0559 142.037 37.9179 142.037 37.7532C142.037 37.6686 142.086 37.5974 142.144 37.5351L142.411 37.2368C142.237 37.09 142.135 36.8808 142.135 36.6226C142.135 36.1285 142.504 35.7991 143.061 35.7991H143.786ZM143.492 36.9342V36.3066H143.105C142.883 36.3066 142.745 36.4267 142.745 36.6137C142.745 36.8051 142.887 36.9342 143.105 36.9342H143.492Z" fill="#618084"/>
<path d="M100.903 16.6128C103.548 16.6128 105.205 18.3842 105.205 21.1909V26.9424C105.205 27.8626 104.538 28.5298 103.663 28.5298C102.766 28.5298 102.099 27.8396 102.099 26.9424V21.6281C102.099 20.2707 101.317 19.4195 100.074 19.4195C98.8322 19.4195 97.981 20.2937 97.981 21.559V26.9424C97.981 27.8626 97.3138 28.5298 96.4396 28.5298C95.5423 28.5298 94.8752 27.8396 94.8752 26.9424V21.6281C94.8752 20.2707 94.07 19.4195 92.8507 19.4195C91.5854 19.4195 90.7571 20.2937 90.7571 21.6281V26.9424C90.7571 27.8626 90.09 28.5298 89.2158 28.5298C88.3185 28.5298 87.6514 27.8396 87.6514 26.9424V18.1772C87.6514 17.28 88.3185 16.6128 89.1928 16.6128C89.9059 16.6128 90.4581 17.0729 90.6421 17.7631C91.4243 17.0269 92.4826 16.6128 93.7249 16.6128C95.1973 16.6128 96.3706 17.1879 97.1067 18.2462C98.004 17.2339 99.3843 16.6128 100.903 16.6128Z" fill="#003E47"/>
<path d="M79.4596 28.5298C76.3538 28.5298 74.1913 26.3672 74.1913 23.2385V18.1772C74.1913 17.28 74.8585 16.6128 75.7557 16.6128C76.6299 16.6128 77.2971 17.28 77.2971 18.1772V23.4915C77.2971 24.7568 78.1943 25.6771 79.4596 25.6771C80.7019 25.6771 81.5761 24.7568 81.5761 23.4915V18.1772C81.5761 17.28 82.2203 16.6128 83.1405 16.6128C84.0148 16.6128 84.6819 17.28 84.6819 18.1772V23.2385C84.6819 26.3672 82.5194 28.5298 79.4596 28.5298Z" fill="#003E47"/>
<path d="M71.6606 25.9301C71.9367 26.3442 72.0977 26.7353 72.0977 27.1033C72.0977 27.8855 71.4305 28.5297 70.6483 28.5297C70.0962 28.5297 69.6361 28.2536 69.268 27.7245L65.8631 22.8933H65.8401H63.2175V26.9423C63.2175 27.8395 62.5503 28.5297 61.6761 28.5297C60.7789 28.5297 60.1117 27.8395 60.1117 26.9423V14.6342C60.1117 13.737 60.7789 13.0698 61.6991 13.0698H65.8401C69.0839 13.0698 71.2925 15.0483 71.2925 17.947C71.2925 19.7875 70.3953 21.2829 68.9229 22.1341L71.6606 25.9301ZM63.2175 15.8075V20.1556H65.8171C67.2435 20.1556 68.1177 19.3044 68.1177 17.9701C68.1177 16.6587 67.2205 15.8075 65.8171 15.8075H63.2175Z" fill="#003E47"/>
<path d="M127.859 28.5298C124.753 28.5298 122.591 26.3672 122.591 23.2385V18.1772C122.591 17.28 123.258 16.6128 124.155 16.6128C125.03 16.6128 125.697 17.28 125.697 18.1772V23.4915C125.697 24.7568 126.594 25.6771 127.859 25.6771C129.102 25.6771 129.976 24.7568 129.976 23.4915V18.1772C129.976 17.28 130.62 16.6128 131.54 16.6128C132.414 16.6128 133.082 17.28 133.082 18.1772V23.2385C133.082 26.3672 130.919 28.5298 127.859 28.5298Z" fill="#003E47"/>
<path d="M117.688 20.0406C119.39 20.6387 120.403 21.9731 120.403 23.7905C120.403 26.4132 118.332 28.2536 115.387 28.2536H110.211C109.291 28.2536 108.624 27.5865 108.624 26.6662V14.6572C108.624 13.737 109.291 13.0698 110.211 13.0698H114.007C116.837 13.0698 118.815 14.7953 118.815 17.3029C118.815 18.4302 118.424 19.3504 117.688 20.0406ZM113.777 15.7385H111.638V19.2124H113.777C114.996 19.2124 115.756 18.5452 115.756 17.4639C115.756 16.3827 114.996 15.7385 113.777 15.7385ZM115.157 25.585C116.515 25.585 117.32 24.8948 117.32 23.6755C117.32 22.4792 116.515 21.766 115.157 21.766H111.638V25.585H115.157Z" fill="#003E47"/>
<path fill-rule="evenodd" clip-rule="evenodd" d="M135.545 26.8959C136.557 27.8852 138.03 28.5294 139.732 28.5294C142.217 28.5294 144.172 27.241 144.172 24.8944C144.172 23.123 143.022 22.2488 140.974 21.4206L139.87 20.9605C139.752 20.9147 139.644 20.8708 139.545 20.8278L139.259 21.6066L137.33 18.9464L140.479 18.0085L140.007 19.1302C140.021 19.1358 140.035 19.1414 140.049 19.1468C140.75 19.1815 141.406 19.4474 141.964 19.8332C142.24 20.0172 142.516 20.1553 142.792 20.1553C143.482 20.1553 144.057 19.5801 144.057 18.8669C144.057 18.4528 143.873 18.0847 143.505 17.8087C142.585 17.0265 141.273 16.5894 139.916 16.5894C137.501 16.5894 135.729 17.8317 135.729 20.0172C135.729 21.8117 136.902 22.7089 138.835 23.4911L139.811 23.8963L140.266 24.0528L140.575 22.8373L142.68 25.3613L139.601 26.5095L139.716 25.9751C138.754 25.9574 137.947 25.5266 137.293 24.9635C136.971 24.7104 136.695 24.6184 136.396 24.6184C135.683 24.6184 135.108 25.2165 135.108 25.9297C135.108 26.2978 135.246 26.6429 135.545 26.8959Z" fill="#003E47"/>
</svg>
