<svg width="64" height="64" viewBox="0 0 64 64" fill="none" xmlns="http://www.w3.org/2000/svg">
<path d="M21.6413 30.8483C17.8804 34.9581 14.0911 35.7002 12.6665 35.5575V56.9628H23.7782C23.7782 57.1055 25.2312 57.6478 31.0435 58.6753C36.8558 59.7027 46.2864 59.1034 50.2752 58.6753C51.8423 58.5326 55.1473 57.7334 55.8311 55.6785C56.5149 53.6236 55.5462 51.6829 54.9763 50.9694C56.116 50.684 58.5663 49.5138 59.2501 47.1164C59.9339 44.719 58.1104 42.978 57.1132 42.4072C58.2529 42.2645 60.6177 41.2085 60.9596 38.1262C61.3015 35.0438 59.3925 33.7024 58.3953 33.417C59.2501 33.1316 60.9596 31.7902 60.9596 28.7078C60.9596 25.6255 58.3953 24.2841 57.1132 23.9987H43.4373C40.0183 23.9987 40.5882 20.8592 41.3004 19.2895C44.0356 13.4673 44.4345 10.0138 44.292 9.01487C43.6082 2.85015 40.3032 1.87977 38.7362 2.16518C38.0524 5.24754 35.3172 10.5846 34.0351 12.8678L21.6413 30.8483Z" stroke="#003E47" stroke-width="3" stroke-linecap="round" stroke-linejoin="round"/>
<path d="M12.6667 31.1212H3V61.8789H12.6667V56.8229V35.7559V31.1212Z" stroke="#00CEBF" stroke-width="3" stroke-linecap="round" stroke-linejoin="round"/>
</svg>
