<svg width="64" height="64" viewBox="0 0 64 64" fill="none" xmlns="http://www.w3.org/2000/svg">
<path d="M52.19 17.3039C51.0153 9.25044 53.1689 5.74569 54.3925 5C56.8723 5.63916 59.8308 14.907 61 19.4611C60.6465 23.2428 59.8416 31.2377 59.4501 32.9634C59.0585 34.6891 55.0451 48.543 53.0873 55.2542C51.5211 58.0026 47.6491 58.8495 45.9088 58.9294C43.1876 58.9704 19.0204 59.6583 19.5 57.5C20.4999 53 21.5 46.5 26 46.5C32.1463 46.5 41.5038 49.2088 45.9088 51.0997C45.936 48.6229 47 43 48 36.5C49.0605 29.6066 52.4075 23.9618 55.2082 22.8167C53.1852 19.6848 52.3531 17.8365 52.19 17.3039Z" stroke="#003E47" stroke-width="3" stroke-linejoin="round"/>
<path d="M5.00918 54.2913C5.14118 52.6199 8.58404 52.3628 10.289 52.4432C11.4439 48.9881 14.0178 41.4993 15.0738 39.1852C16.3937 36.2925 17.2187 35.7301 21.0135 35.489C24.0494 35.2962 31.6281 36.5336 35.038 37.1764C36.8859 32.6873 36.4679 29.0385 36.0279 27.7753C34.598 28.8198 31.4081 31.0054 30.0882 31.3911C28.4382 31.8732 21 31.5 17.9612 32.0251C15.6359 32.4269 14.5825 31.7053 14.5 30.5C14.4175 29.2947 14 27.5 17.9612 27.3647C20.7286 27.2702 26.4308 26.6771 29.0157 26.811C31.4906 24.7755 36.6549 20.4151 37.5129 19.258C38.5853 17.8117 42.7927 15.1601 44.9376 20.7043C47.0825 26.2486 43.3701 39.4262 42.4627 41.6761C41.7367 43.4759 39.0803 43.7116 37.8429 43.6045C32.8656 42.801 22.614 41.1779 21.426 41.1136C20.2381 41.0493 19.8311 41.9975 19.7761 42.4796C18.6486 45.399 16.2782 51.5432 15.8163 52.7646C15.2388 54.2913 14.8263 57.3446 10.8664 57.9071C6.90661 58.4695 4.84419 56.3804 5.00918 54.2913Z" stroke="#00CEBF" stroke-width="3" stroke-linejoin="round"/>
<path d="M47 10.9818C47 13.7332 44.71 15.9636 41.8852 15.9636C39.0604 15.9636 36.7704 13.7332 36.7704 10.9818C36.7704 8.23043 39.0604 6 41.8852 6C44.71 6 47 8.23043 47 10.9818Z" stroke="#00CEBF" stroke-width="3" stroke-linejoin="round"/>
</svg>
