<svg width="64" height="64" viewBox="0 0 64 64" fill="none" xmlns="http://www.w3.org/2000/svg">
<path d="M3 61H15.2105M61 61H49.2982M49.2982 61H40.1404M49.2982 61C48.5595 59.7508 47.5914 58.0159 46.5189 55.9565M37.5965 33.7652C36.7485 30.7391 34.8491 21.8626 34.0351 10.5652M37.5965 33.7652H39.6316M37.5965 33.7652C38.4207 37.1695 39.693 40.8227 41.128 44.3565M37.5965 33.7652H32.2544M15.2105 61H23.5073M15.2105 61C15.9685 59.826 16.9938 58.0957 18.14 55.9565M26.9123 33.7652C27.9298 28.8899 29.9649 17.4243 29.9649 10.5652M26.9123 33.7652H24.8772M26.9123 33.7652C26.0275 37.3988 24.8255 40.9967 23.5073 44.3565M26.9123 33.7652H32.2544M29.9649 10.5652H34.0351M29.9649 10.5652H27.4211V6.02609H32M34.0351 10.5652H36.5789V6.02609H32M32 6.02609V3M32 22.6696V23.6783M32 27.4913V28.5M20.2982 44.3565H23.5073M23.5073 44.3565H28.4386M23.5073 44.3565C22.8554 46.0181 22.1751 47.6214 21.4908 49.142M41.128 44.3565H44.2105M41.128 44.3565H36.5789M41.128 44.3565C41.791 45.9893 42.4887 47.5966 43.193 49.142M23.5073 61C23.9639 57.3015 26.3018 49.9044 32 49.9044C37.6982 49.9044 39.8012 57.3015 40.1404 61M23.5073 61H40.1404M32.2544 33.7652L28.4386 44.3565M32.2544 33.7652L36.5789 44.3565M28.4386 44.3565H36.5789M43.193 49.142H41.128M43.193 49.142C43.7019 50.2587 44.2142 51.3431 44.7193 52.3816M44.7193 52.3816H42.6842M44.7193 52.3816C45.3364 53.6502 45.9427 54.8502 46.5189 55.9565M46.5189 55.9565H44.2105M18.14 55.9565H20.807M18.14 55.9565C18.725 54.8648 19.3414 53.6667 19.9699 52.3816M19.9699 52.3816H22.3333M19.9699 52.3816C20.4725 51.3539 20.9827 50.2707 21.4908 49.142M21.4908 49.142H23.5073" stroke="#003E47" stroke-width="3" stroke-linecap="round" stroke-linejoin="round"/>
<path d="M32 6.02609H27.4211V10.5652H29.9649H34.0351H36.579V6.02609H32ZM32 6.02609V3" stroke="#00CEBF" stroke-width="3" stroke-linecap="round" stroke-linejoin="round"/>
</svg>
