<svg width="64" height="64" viewBox="0 0 64 64" fill="none" xmlns="http://www.w3.org/2000/svg">
<path d="M21.0624 2.79663H17.752C17.1998 2.79663 16.752 3.24435 16.752 3.79663V5.8203C16.752 6.19227 16.5456 6.5335 16.2161 6.70611L13.7252 8.01105C13.3301 8.21804 12.8457 8.13833 12.5377 7.81567L11.1976 6.41159C10.8206 6.01655 10.1964 5.99703 9.7954 6.36774L7.33909 8.63859C6.92899 9.01772 6.90892 9.65928 7.29453 10.0633L8.88761 11.7325C9.17422 12.0328 9.2455 12.4789 9.06671 12.8536L7.78827 15.5326C7.62228 15.8804 7.27117 16.1019 6.88577 16.1019H4.8224C4.27012 16.1019 3.8224 16.5496 3.8224 17.1019V20.6659C3.8224 21.2182 4.27012 21.6659 4.8224 21.6659H6.86949C7.26326 21.6659 7.62038 21.897 7.78171 22.2562L9.07497 25.1356C9.24811 25.5211 9.16023 25.9738 8.85545 26.2666L7.35842 27.7044C6.94327 28.1031 6.94961 28.7691 7.37228 29.1599L9.82905 31.4312C10.2165 31.7894 10.8155 31.7849 11.1976 31.421L12.5673 30.1163C12.8636 29.8341 13.3018 29.7609 13.6737 29.9314L16.1687 31.0751C16.5242 31.238 16.752 31.5931 16.752 31.9841V34.2131C16.752 34.7654 17.1998 35.2131 17.752 35.2131H21.0624C21.6147 35.2131 22.0624 34.7654 22.0624 34.2131V32.0001C22.0624 31.601 22.2998 31.2401 22.6663 31.0819L25.3804 29.911C25.7485 29.7522 26.1759 29.8286 26.4663 30.1051L27.8268 31.4011C28.2174 31.7731 28.8325 31.7683 29.2173 31.3904L31.5182 29.1303C31.9082 28.7472 31.9183 28.1219 31.5409 27.7264L30.1225 26.2404C29.8537 25.9587 29.7728 25.5466 29.9152 25.1842L31.0486 22.3001C31.199 21.9175 31.5682 21.6659 31.9793 21.6659H33.9921C34.5444 21.6659 34.9921 21.2182 34.9921 20.6659V17.1019C34.9921 16.5496 34.5444 16.1019 33.9921 16.1019H31.964C31.5606 16.1019 31.1967 15.8595 31.0412 15.4872L29.9217 12.8062C29.7748 12.4543 29.8408 12.0494 30.0919 11.7624L31.5999 10.0387C31.9488 9.63991 31.9261 9.03818 31.548 8.66685L29.251 6.4105C28.853 6.01954 28.212 6.02988 27.8268 6.43348L26.4945 7.82943C26.1928 8.14554 25.7208 8.22915 25.3289 8.0359L22.6202 6.70035C22.2787 6.53196 22.0624 6.18423 22.0624 5.80345V3.79663C22.0624 3.24435 21.6147 2.79663 21.0624 2.79663Z" stroke="#003E47" stroke-width="3" stroke-linecap="round" stroke-linejoin="round"/>
<path d="M38.9345 30.3541L36.7846 31.3196C36.2808 31.5459 36.0558 32.1377 36.2821 32.6415L36.7928 33.7787C36.9475 34.1232 36.8949 34.5256 36.6568 34.8188L35.3634 36.4115C35.0905 36.7475 34.6324 36.8698 34.2283 36.7145L33.0285 36.2533C32.5329 36.0628 31.9749 36.2928 31.7574 36.7771L30.8131 38.8804C30.578 39.4039 30.8308 40.0175 31.3665 40.2234L32.724 40.7452C33.1235 40.8988 33.381 41.2895 33.3645 41.7172L33.2846 43.7886C33.2699 44.1682 33.0415 44.5067 32.695 44.6623L31.4081 45.2402C30.9043 45.4665 30.6793 46.0583 30.9056 46.5622L31.8845 48.7417C32.1107 49.2455 32.7026 49.4705 33.2064 49.2442L34.4782 48.673C34.8325 48.5139 35.2469 48.5743 35.541 48.828L37.217 50.2736C37.5466 50.5579 37.6545 51.0227 37.4838 51.423L36.9897 52.5818C36.7579 53.1256 37.0458 53.7507 37.6097 53.928L39.8064 54.6185C40.2954 54.7722 40.8215 54.5312 41.0245 54.0605L41.5276 52.894C41.6847 52.5297 42.0422 52.2928 42.4389 52.29L44.4461 52.276C44.8424 52.2732 45.2029 52.5048 45.3653 52.8663L45.9394 54.1446C46.1656 54.6484 46.7575 54.8734 47.2613 54.6471L49.4112 53.6816C49.915 53.4553 50.14 52.8635 49.9137 52.3597L49.346 51.0957C49.1804 50.7269 49.2531 50.2947 49.5303 50.0004L51.0258 48.4126C51.2923 48.1296 51.6987 48.0267 52.0677 48.1488L53.2623 48.5438C53.76 48.7084 54.3003 48.4607 54.5005 47.9763L55.3458 45.9303C55.5604 45.4109 55.305 44.8167 54.7804 44.615L53.5945 44.1592C53.2198 44.0151 52.9676 43.661 52.9539 43.2599L52.8798 41.0901C52.866 40.6842 53.099 40.3102 53.4696 40.1438L54.7095 39.5869C55.2133 39.3606 55.4383 38.7688 55.212 38.265L54.2331 36.0855C54.0069 35.5817 53.415 35.3567 52.9112 35.5829L51.6571 36.1462C51.2938 36.3093 50.8682 36.2414 50.5738 35.9731L49.0761 34.6083C48.7852 34.3432 48.6768 33.9322 48.7992 33.5582L49.2556 32.163C49.425 31.645 49.1484 31.0867 48.6336 30.9076L46.5445 30.181C46.032 30.0027 45.4709 30.2657 45.28 30.7736L44.8315 31.9666C44.6823 32.3636 44.2989 32.6232 43.8749 32.6145L41.6519 32.5687C41.2657 32.5608 40.9186 32.331 40.7603 31.9786L40.2564 30.8566C40.0301 30.3528 39.4383 30.1278 38.9345 30.3541Z" stroke="#00CEBF" stroke-width="3" stroke-linecap="round" stroke-linejoin="round"/>
<path d="M16.3364 39.735L14.8571 39.7277C14.3048 39.725 13.8549 40.1705 13.8522 40.7228L13.8489 41.3928C13.847 41.7705 13.6325 42.115 13.2944 42.2832L12.0693 42.8928C11.6818 43.0856 11.2141 43.0072 10.9107 42.6985L10.4271 42.2065C10.055 41.8279 9.45179 41.8061 9.05326 42.1569L7.97394 43.1068C7.54315 43.486 7.51918 44.1492 7.92146 44.5585L8.48544 45.1323C8.78543 45.4375 8.85795 45.8998 8.66581 46.2822L8.04334 47.5211C7.87281 47.8605 7.52471 48.074 7.14487 48.0721L6.34456 48.0682C5.79229 48.0655 5.34238 48.511 5.33966 49.0633L5.33227 50.5686C5.32955 51.1208 5.77506 51.5707 6.32734 51.5735L7.11113 51.5773C7.49952 51.5792 7.85167 51.8058 8.01431 52.1585L8.63919 53.5136C8.82145 53.9089 8.72712 54.3766 8.40592 54.6704L7.93614 55.0999C7.49989 55.4989 7.50304 56.1871 7.94293 56.582L9.01066 57.5406C9.39211 57.8831 9.97075 57.8816 10.3505 57.5372L10.87 57.0661C11.1639 56.7996 11.5874 56.732 11.9496 56.8938L13.1733 57.4403C13.5352 57.602 13.7675 57.962 13.7655 58.3583L13.7617 59.1447C13.7589 59.697 14.2044 60.1469 14.7567 60.1496L16.236 60.1569C16.7883 60.1596 17.2382 59.7141 17.2409 59.1618L17.2447 58.3911C17.2467 57.9869 17.4919 57.6236 17.8661 57.4705L19.2351 56.9105C19.5949 56.7633 20.0074 56.8379 20.2927 57.1019L20.7986 57.5698C21.1835 57.9258 21.7779 57.9241 22.1607 57.5661L23.1643 56.6275C23.5748 56.2436 23.5884 55.5969 23.1944 55.1961L22.7214 54.7148C22.44 54.4286 22.3571 54.0018 22.5108 53.631L23.0718 52.2774C23.2273 51.9022 23.5943 51.6583 24.0005 51.6603L24.7493 51.664C25.3016 51.6667 25.7515 51.2212 25.7542 50.6689L25.7616 49.1636C25.7643 48.6113 25.3188 48.1614 24.7665 48.1587L24.0021 48.155C23.6038 48.153 23.2446 47.9149 23.0878 47.5488L22.5538 46.3024C22.3989 45.9407 22.4704 45.5217 22.7367 45.232L23.308 44.6102C23.6768 44.2089 23.6563 43.5861 23.2619 43.21L22.2689 42.2628C21.8763 41.8883 21.2566 41.8952 20.8724 42.2785L20.3919 42.7579C20.0916 43.0574 19.6351 43.135 19.2528 42.9514L17.8954 42.2997C17.5471 42.1325 17.3263 41.7796 17.3282 41.3933L17.3315 40.7399C17.3342 40.1876 16.8887 39.7377 16.3364 39.735Z" stroke="#003E47" stroke-width="3" stroke-linecap="round" stroke-linejoin="round"/>
<circle cx="19.4072" cy="19.0048" r="6.85733" stroke="#003E47" stroke-width="3"/>
<circle cx="43.0979" cy="42.5008" r="4.71066" transform="rotate(-24.1855 43.0979 42.5008)" stroke="#00CEBF" stroke-width="3"/>
<circle cx="15.547" cy="49.9422" r="3.76198" transform="rotate(0.281495 15.547 49.9422)" stroke="#003E47" stroke-width="3"/>
</svg>
