<svg width="32" height="32" viewBox="0 0 32 32" fill="none" xmlns="http://www.w3.org/2000/svg">
<rect width="32" height="32" rx="16" fill="#675DA9"/>
<path d="M23.8357 8.12311C23.3064 7.63653 21.1638 6.07863 16.3876 6.05729C16.3876 6.05729 10.7578 5.71583 8.01338 8.23408C6.48535 9.76211 5.94756 11.9944 5.89207 14.7687C5.83658 17.5388 5.76402 22.7333 10.7707 24.1418H10.7749L10.7707 26.2887C10.7707 26.2887 10.7408 27.1594 11.3127 27.3344C12.0042 27.5478 12.4139 26.8862 13.0755 26.1734C13.4383 25.7808 13.9377 25.2088 14.3176 24.7692C17.7407 25.0552 20.3742 24.3979 20.6729 24.2997C21.3644 24.0735 25.2784 23.5741 25.9143 18.3797C26.5716 13.0358 25.5942 9.65114 23.8357 8.12311ZM24.4162 18.0041C23.8784 22.3406 20.7071 22.6137 20.1223 22.8015C19.8748 22.8826 17.5614 23.4589 14.6505 23.2668C14.6505 23.2668 12.4822 25.8832 11.8078 26.5619C11.7011 26.6686 11.5773 26.7112 11.4963 26.6899C11.381 26.66 11.3469 26.5234 11.3511 26.3228C11.3511 26.0326 11.3682 22.7503 11.3682 22.7503C11.3639 22.7503 11.3639 22.7503 11.3682 22.7503C7.12985 21.5766 7.37741 17.1547 7.42436 14.8413C7.47131 12.5279 7.90667 10.6286 9.19995 9.35236C11.5176 7.25239 16.3023 7.56397 16.3023 7.56397C20.34 7.58105 22.2735 8.79749 22.7217 9.20297C24.2113 10.4834 24.971 13.5352 24.4162 18.0041Z" fill="white"/>
<path d="M18.3553 14.9223C18.2144 14.9223 18.0949 14.8114 18.0864 14.6662C18.0394 13.7486 17.6084 13.3004 16.7291 13.2534C16.5797 13.2449 16.4645 13.1169 16.473 12.9675C16.4815 12.8181 16.6096 12.7028 16.759 12.7114C17.9199 12.7754 18.5687 13.4412 18.6285 14.6364C18.637 14.7857 18.5218 14.9138 18.3724 14.9181C18.3638 14.9223 18.3596 14.9223 18.3553 14.9223Z" fill="white"/>
<path d="M19.7382 15.3835H19.7339C19.5845 15.3792 19.465 15.2555 19.4693 15.1061C19.4906 14.1841 19.226 13.4372 18.6626 12.8226C18.1035 12.208 17.3309 11.875 16.3108 11.8025C16.1614 11.7897 16.0505 11.6616 16.0633 11.5122C16.0761 11.3628 16.2041 11.2519 16.3535 11.2647C17.5059 11.35 18.4151 11.7513 19.0638 12.4598C19.7169 13.1726 20.0327 14.0646 20.0114 15.1189C20.0071 15.2683 19.8833 15.3835 19.7382 15.3835Z" fill="white"/>
<path d="M21.1552 15.9382C21.0059 15.9382 20.8863 15.8187 20.8863 15.6693C20.8735 14.0175 20.3998 12.7584 19.4351 11.8151C18.4833 10.8846 17.2754 10.4108 15.8541 10.398C15.7047 10.398 15.5852 10.2742 15.5852 10.1249C15.5852 9.97547 15.709 9.85596 15.8541 9.85596C17.4205 9.86876 18.7522 10.3938 19.8065 11.4267C20.865 12.4596 21.4071 13.8852 21.4241 15.6607C21.4284 15.8144 21.3089 15.9382 21.1552 15.9382C21.1595 15.9382 21.1595 15.9382 21.1552 15.9382Z" fill="white"/>
<path d="M16.7931 18.2643C16.7931 18.2643 17.173 18.2984 17.3779 18.0466L17.7748 17.5472C17.9669 17.2997 18.4321 17.1418 18.8846 17.3936C19.1364 17.5344 19.5931 17.8161 19.8748 18.0253C20.1778 18.2472 20.7925 18.7594 20.7967 18.7637C21.0912 19.0112 21.1595 19.374 20.9589 19.7624C20.9589 19.7624 20.9589 19.7667 20.9589 19.771C20.754 20.1338 20.4766 20.4752 20.1309 20.7911C20.1266 20.7911 20.1266 20.7954 20.1223 20.7954C19.8364 21.0344 19.5547 21.171 19.2815 21.2008C19.2474 21.2094 19.2089 21.2094 19.1577 21.2094C19.0382 21.2094 18.9187 21.1923 18.7992 21.1539L18.7907 21.1411C18.3638 21.0216 17.6553 20.7228 16.4773 20.0698C15.709 19.6472 15.073 19.2161 14.531 18.785C14.245 18.5588 13.9548 18.307 13.656 18.0082C13.6474 17.9997 13.6346 17.9869 13.6261 17.9783C13.6176 17.9698 13.6048 17.957 13.5962 17.9484C13.5877 17.9399 13.5749 17.9271 13.5663 17.9186C13.5578 17.91 13.545 17.8972 13.5365 17.8887C13.242 17.5899 12.9859 17.2997 12.7596 17.0137C12.3286 16.4759 11.8975 15.8357 11.4749 15.0674C10.8219 13.8851 10.5231 13.1766 10.4036 12.754L10.3908 12.7455C10.3524 12.626 10.3353 12.5065 10.3353 12.3869C10.3353 12.3357 10.3353 12.2973 10.3438 12.2632C10.378 11.9857 10.5146 11.7083 10.7493 11.4223C10.7493 11.4181 10.7536 11.4181 10.7536 11.4138C11.0694 11.0638 11.4109 10.7906 11.7737 10.5858C11.7737 10.5858 11.778 10.5858 11.7822 10.5858C12.1664 10.3851 12.5292 10.4534 12.781 10.7479C12.781 10.7479 13.2974 11.3668 13.5194 11.6699C13.7285 11.9559 14.0102 12.4083 14.1511 12.6601C14.4029 13.1125 14.245 13.5778 13.9974 13.7699L13.4981 14.1668C13.2462 14.3717 13.2804 14.7515 13.2804 14.7515C13.2804 14.7515 14.0188 17.56 16.7931 18.2643Z" fill="white"/>
</svg>
