<svg width="32" height="32" viewBox="0 0 32 32" fill="none" xmlns="http://www.w3.org/2000/svg">
<rect width="32" height="32" rx="16" fill="#49B46B"/>
<path d="M19.3023 15.1394C19.1038 15.1394 18.9353 14.983 18.9233 14.7785C18.8571 13.4852 18.2496 12.8537 17.0105 12.7875C16.8 12.7755 16.6376 12.595 16.6496 12.3845C16.6616 12.174 16.8421 12.0115 17.0526 12.0236C18.6887 12.1138 19.603 13.0522 19.6872 14.7364C19.6993 14.9469 19.5369 15.1274 19.3263 15.1334C19.3143 15.1394 19.3083 15.1394 19.3023 15.1394Z" fill="white"/>
<path d="M21.2511 15.7891H21.2451C21.0346 15.7831 20.8662 15.6087 20.8722 15.3981C20.9023 14.0989 20.5293 13.0462 19.7353 12.1801C18.9474 11.3139 17.8586 10.8447 16.421 10.7425C16.2105 10.7244 16.0541 10.544 16.0722 10.3334C16.0902 10.1229 16.2707 9.96653 16.4812 9.98457C18.1053 10.1049 19.3865 10.6703 20.3008 11.6688C21.2211 12.6733 21.6662 13.9305 21.6361 15.4162C21.6301 15.6267 21.4557 15.7891 21.2511 15.7891Z" fill="white"/>
<path d="M23.248 16.5715C23.0375 16.5715 22.869 16.4031 22.869 16.1925C22.851 13.8647 22.1833 12.0903 20.8239 10.7609C19.4826 9.44964 17.7803 8.78196 15.7773 8.76392C15.5667 8.76392 15.3983 8.58948 15.3983 8.37895C15.3983 8.16842 15.5728 8 15.7773 8C17.9848 8.01805 19.8615 8.7579 21.3472 10.2136C22.839 11.6692 23.6029 13.6782 23.6269 16.1805C23.633 16.3971 23.4645 16.5715 23.248 16.5715C23.254 16.5715 23.254 16.5715 23.248 16.5715Z" fill="white"/>
<path d="M17.1008 19.8498C17.1008 19.8498 17.6362 19.8979 17.9249 19.543L18.4843 18.8392C18.755 18.4904 19.4106 18.2678 20.0482 18.6227C20.4031 18.8212 21.0467 19.2182 21.4437 19.5129C21.8708 19.8257 22.7369 20.5475 22.743 20.5535C23.158 20.9024 23.2542 21.4137 22.9715 21.9611C22.9715 21.9611 22.9715 21.9671 22.9715 21.9731C22.6828 22.4844 22.2918 22.9656 21.8046 23.4107C21.7986 23.4107 21.7986 23.4167 21.7926 23.4167C21.3896 23.7536 20.9926 23.946 20.6076 23.9881C20.5595 24.0002 20.5054 24.0002 20.4332 24.0002C20.2648 24.0002 20.0963 23.9761 19.9279 23.922L19.9159 23.9039C19.3144 23.7355 18.3159 23.3145 16.6557 22.3942C15.573 21.7987 14.6767 21.1911 13.9128 20.5836C13.5098 20.2648 13.1008 19.9099 12.6797 19.4889C12.6677 19.4768 12.6497 19.4588 12.6376 19.4468C12.6256 19.4347 12.6076 19.4167 12.5955 19.4047C12.5835 19.3926 12.5654 19.3746 12.5534 19.3625C12.5414 19.3505 12.5233 19.3325 12.5113 19.3204C12.0963 18.8994 11.7354 18.4904 11.4166 18.0874C10.809 17.3295 10.2015 16.4272 9.60603 15.3445C8.68572 13.6783 8.26466 12.6798 8.09624 12.0843L8.0782 12.0723C8.02406 11.9038 8 11.7354 8 11.567C8 11.4948 8 11.4407 8.01203 11.3926C8.06015 11.0016 8.25263 10.6106 8.58346 10.2076C8.58346 10.2016 8.58948 10.2016 8.58948 10.1956C9.03459 9.70233 9.5158 9.31736 10.0271 9.02864C10.0271 9.02864 10.0331 9.02864 10.0391 9.02864C10.5805 8.74593 11.0918 8.84217 11.4466 9.25721C11.4466 9.25721 12.1745 10.1294 12.4873 10.5565C12.782 10.9595 13.179 11.5971 13.3775 11.952C13.7324 12.5896 13.5098 13.2452 13.1609 13.5159L12.4572 14.0753C12.1023 14.364 12.1504 14.8994 12.1504 14.8994C12.1504 14.8994 13.191 18.8573 17.1008 19.8498Z" fill="white"/>
</svg>
